<svg width="1745" height="1135" viewBox="0 0 1745 1135" fill="none" xmlns="http://www.w3.org/2000/svg">
<path d="M1136.5 354.5L1143 359L1164 350L1172 358.5L1173 367.5L1171 375L1165 388.5L1167.5 393L1165 397L1155.5 404L1145.5 411.5L1129.5 416L1125 418.5L1122 422.5L1121 427L1119.5 438L1117 443L1113.5 445.5L1100.5 449.5L1103.5 454.5V458.5L1102 463L1099 467.5L1101 471.5L1100.5 474.5L1099 477L1092 475L1090 474.5L1086 476L1082.5 479L1079.5 483L1077.5 488L1081 487L1088.5 482L1091.5 481.5L1094.5 484L1094 492.5L1097 497L1092 498.5L1086 499L1081 500L1077.5 504L1079.5 505.5L1086.5 513L1082.5 515.5H1080L1075.5 512.5L1074 514L1071 517.5L1067 519.5L1063.5 519L1059.5 515L1054.5 518.5L1059 523.5L1072 533.5L1014 542.5L1001.5 556L999 557L995.5 563L980 579.5L974.5 583L942.5 588.5L934.5 585L919.5 591H916.5L915 598.5L911 600L899.5 598.5L897.5 600.5L897 608.5L894 612L891.5 611.5V608.5L890 608L878.5 605L874 602.5L870.5 598.5L863 604H860L856 601L835.5 583L805 571.5L776.5 571L748 577L719.5 559.5L704 554L695 539V519.5L705.5 506.5L720 493.5L732.5 477.5L769.5 470.5L792.5 461L816.5 457.5L827.5 461L839 462.5L848 459.5L857.5 455L879 449.5L895 435.5L895.5 418L902.5 405L922.5 394L939 369L958 347H976.5L992 342.5L1007 345.5L1008 356.5L998 366L992.5 369.5L994.5 376.5L999 378.5L1003 381.5L1018.5 385.5H1037L1055 388.5L1074 384.5L1081.5 384L1088.5 382.5L1099 377.5L1110.5 375L1124.5 368L1136.5 354.5Z" fill="#101828" stroke="white" stroke-width="6" stroke-linecap="round" stroke-linejoin="round"/>
<path d="M852.963 521H849.588L855.733 503.545H859.636L865.79 521H862.415L857.753 507.125H857.616L852.963 521ZM853.074 514.156H862.278V516.696H853.074V514.156ZM872.412 521.23C871.384 521.23 870.463 520.966 869.651 520.438C868.838 519.909 868.196 519.142 867.724 518.136C867.253 517.131 867.017 515.909 867.017 514.472C867.017 513.017 867.256 511.79 867.733 510.79C868.216 509.784 868.866 509.026 869.685 508.514C870.503 507.997 871.415 507.739 872.42 507.739C873.188 507.739 873.818 507.869 874.312 508.131C874.807 508.386 875.199 508.696 875.489 509.06C875.778 509.418 876.003 509.756 876.162 510.074H876.29V503.545H879.384V521H876.349V518.938H876.162C876.003 519.256 875.773 519.594 875.472 519.952C875.17 520.304 874.773 520.605 874.278 520.855C873.784 521.105 873.162 521.23 872.412 521.23ZM873.273 518.699C873.926 518.699 874.483 518.523 874.943 518.17C875.403 517.812 875.753 517.315 875.991 516.679C876.23 516.043 876.349 515.301 876.349 514.455C876.349 513.608 876.23 512.872 875.991 512.247C875.759 511.622 875.412 511.136 874.952 510.79C874.497 510.443 873.938 510.27 873.273 510.27C872.585 510.27 872.011 510.449 871.551 510.807C871.091 511.165 870.744 511.659 870.511 512.29C870.278 512.92 870.162 513.642 870.162 514.455C870.162 515.273 870.278 516.003 870.511 516.645C870.75 517.281 871.099 517.784 871.56 518.153C872.026 518.517 872.597 518.699 873.273 518.699ZM882.671 521V507.909H885.756V521H882.671ZM890.847 525.909C890.426 525.909 890.037 525.875 889.679 525.807C889.327 525.744 889.045 525.67 888.835 525.585L889.551 523.182C890 523.313 890.401 523.375 890.753 523.369C891.105 523.364 891.415 523.253 891.682 523.037C891.955 522.827 892.185 522.474 892.372 521.98L892.636 521.273L887.889 507.909H891.162L894.179 517.795H894.315L897.341 507.909H900.622L895.381 522.585C895.136 523.278 894.813 523.872 894.409 524.366C894.006 524.866 893.511 525.247 892.926 525.509C892.347 525.776 891.653 525.909 890.847 525.909ZM906.149 521.264C905.32 521.264 904.572 521.116 903.908 520.821C903.249 520.52 902.726 520.077 902.339 519.491C901.959 518.906 901.768 518.185 901.768 517.327C901.768 516.588 901.905 515.977 902.178 515.494C902.45 515.011 902.822 514.625 903.294 514.335C903.766 514.045 904.297 513.827 904.888 513.679C905.484 513.526 906.101 513.415 906.737 513.347C907.504 513.267 908.126 513.196 908.604 513.134C909.081 513.065 909.428 512.963 909.643 512.827C909.865 512.685 909.976 512.466 909.976 512.17V512.119C909.976 511.477 909.786 510.98 909.405 510.628C909.024 510.276 908.476 510.099 907.76 510.099C907.004 510.099 906.405 510.264 905.962 510.594C905.524 510.923 905.229 511.312 905.075 511.761L902.195 511.352C902.422 510.557 902.797 509.892 903.32 509.358C903.842 508.818 904.482 508.415 905.237 508.148C905.993 507.875 906.828 507.739 907.743 507.739C908.374 507.739 909.001 507.812 909.626 507.96C910.251 508.108 910.822 508.352 911.339 508.693C911.857 509.028 912.271 509.486 912.584 510.065C912.902 510.645 913.061 511.369 913.061 512.239V521H910.095V519.202H909.993C909.805 519.565 909.541 519.906 909.2 520.224C908.865 520.537 908.442 520.79 907.93 520.983C907.425 521.17 906.831 521.264 906.149 521.264ZM906.95 518.997C907.57 518.997 908.107 518.875 908.561 518.631C909.016 518.381 909.365 518.051 909.609 517.642C909.859 517.233 909.984 516.787 909.984 516.304V514.761C909.888 514.841 909.723 514.915 909.49 514.983C909.263 515.051 909.007 515.111 908.723 515.162C908.439 515.213 908.158 515.259 907.879 515.298C907.601 515.338 907.359 515.372 907.155 515.401C906.695 515.463 906.283 515.565 905.919 515.707C905.555 515.849 905.268 516.048 905.058 516.304C904.848 516.554 904.743 516.878 904.743 517.276C904.743 517.844 904.95 518.273 905.365 518.562C905.78 518.852 906.308 518.997 906.95 518.997ZM916.163 521V507.909H919.112V510.134H919.266C919.538 509.384 919.99 508.798 920.621 508.378C921.251 507.952 922.004 507.739 922.879 507.739C923.766 507.739 924.513 507.955 925.121 508.386C925.734 508.812 926.166 509.395 926.416 510.134H926.553C926.842 509.406 927.331 508.827 928.018 508.395C928.712 507.957 929.533 507.739 930.482 507.739C931.686 507.739 932.669 508.119 933.43 508.881C934.192 509.642 934.572 510.753 934.572 512.213V521H931.479V512.69C931.479 511.878 931.263 511.284 930.831 510.909C930.399 510.528 929.871 510.338 929.246 510.338C928.501 510.338 927.919 510.571 927.499 511.037C927.084 511.497 926.876 512.097 926.876 512.835V521H923.851V512.562C923.851 511.886 923.646 511.347 923.237 510.943C922.834 510.54 922.305 510.338 921.652 510.338C921.209 510.338 920.805 510.452 920.442 510.679C920.078 510.901 919.788 511.216 919.572 511.625C919.357 512.028 919.249 512.5 919.249 513.04V521H916.163ZM941.469 521.264C940.64 521.264 939.893 521.116 939.228 520.821C938.569 520.52 938.046 520.077 937.66 519.491C937.279 518.906 937.089 518.185 937.089 517.327C937.089 516.588 937.225 515.977 937.498 515.494C937.771 515.011 938.143 514.625 938.614 514.335C939.086 514.045 939.617 513.827 940.208 513.679C940.805 513.526 941.421 513.415 942.058 513.347C942.825 513.267 943.447 513.196 943.924 513.134C944.401 513.065 944.748 512.963 944.964 512.827C945.185 512.685 945.296 512.466 945.296 512.17V512.119C945.296 511.477 945.106 510.98 944.725 510.628C944.344 510.276 943.796 510.099 943.08 510.099C942.325 510.099 941.725 510.264 941.282 510.594C940.844 510.923 940.549 511.312 940.396 511.761L937.515 511.352C937.742 510.557 938.117 509.892 938.64 509.358C939.163 508.818 939.802 508.415 940.558 508.148C941.313 507.875 942.148 507.739 943.063 507.739C943.694 507.739 944.322 507.812 944.947 507.96C945.572 508.108 946.143 508.352 946.66 508.693C947.177 509.028 947.592 509.486 947.904 510.065C948.222 510.645 948.381 511.369 948.381 512.239V521H945.415V519.202H945.313C945.126 519.565 944.862 519.906 944.521 520.224C944.185 520.537 943.762 520.79 943.251 520.983C942.745 521.17 942.151 521.264 941.469 521.264ZM942.271 518.997C942.89 518.997 943.427 518.875 943.881 518.631C944.336 518.381 944.685 518.051 944.93 517.642C945.18 517.233 945.305 516.787 945.305 516.304V514.761C945.208 514.841 945.043 514.915 944.81 514.983C944.583 515.051 944.327 515.111 944.043 515.162C943.759 515.213 943.478 515.259 943.2 515.298C942.921 515.338 942.68 515.372 942.475 515.401C942.015 515.463 941.603 515.565 941.239 515.707C940.876 515.849 940.589 516.048 940.379 516.304C940.168 516.554 940.063 516.878 940.063 517.276C940.063 517.844 940.271 518.273 940.685 518.562C941.1 518.852 941.629 518.997 942.271 518.997ZM954.569 513.33V521H951.484V507.909H954.433V510.134H954.586C954.887 509.401 955.367 508.818 956.026 508.386C956.691 507.955 957.512 507.739 958.489 507.739C959.393 507.739 960.18 507.932 960.85 508.318C961.526 508.705 962.049 509.264 962.418 509.997C962.793 510.73 962.978 511.619 962.972 512.665V521H959.887V513.142C959.887 512.267 959.66 511.582 959.205 511.088C958.756 510.594 958.134 510.347 957.339 510.347C956.799 510.347 956.319 510.466 955.898 510.705C955.484 510.937 955.157 511.276 954.918 511.719C954.685 512.162 954.569 512.699 954.569 513.33Z" fill="#D0D5DD"/>
<path d="M1445.5 259.5L1358 262.5L1354 260.5L1345 253.5L1339 250.5L1327 253L1323 263.5L1317.5 274.5L1311 284.5L1303 290L1294 293L1274 291.5L1254.5 293.5L1247 297.5L1227 300.5L1216 305.5L1193.5 303.5L1172 298L1136.5 304L1125.5 302.5L1104.5 310L1095 308.5L1087.5 301.5L1083 298.5L1076.5 297.5L1076 295.5L1070 286L1068 284L1061 279L1063 276.5L1057 272L1048.5 273L1033 279L1025.5 278.5L1004 267.5L999 269L993.5 264L986.5 262L971.5 260L968 259L964.5 257L961 254L956.5 248L953.5 246.5L950.5 249.5L946.5 246L943 240L940.5 233L940 227.5L939 224.5L937.5 222.5L936.5 220L940.5 213L943.5 203.5L946.5 198.5L950.5 194L955.5 191L962 190L965.5 188L969 183L970.5 177L968.5 171.5L971.5 167.5L978.5 166.5L1007 169L1010.5 168V164.5V160L1011.5 158L1008.5 147.5V140.5L1007 119.5L1004 110L999.5 101.5V87.5L1006.5 78L1025 77L1032 73.5L1040 72L1050 87L1050.5 97L1046.5 105.5V115L1057.5 126H1065L1085.5 120.5L1106 119L1117 124L1125 122.5H1127.5L1135.5 127.5L1144 128L1154.5 131.5L1165 132.5L1177 138L1188.5 146L1200 149.5L1205 153L1211 160.5L1217.5 159L1224 162L1230.5 164L1238.5 158.5L1245 150L1254 148L1263.5 148.5L1288.5 147L1313 137.5L1329 119.5L1336 105.5L1339.5 89.5L1338.5 78L1335.5 65L1339 59.5L1344 56L1357 53L1371 52L1430.5 20L1439.5 17L1461 7.5L1469 23.5L1458 45L1445 63.5L1440 87L1446 113L1462 132.5L1466.5 143.5L1465 155.5L1461.5 168.5L1456.5 177.5L1448 174.5L1440 173L1428 208.5L1442 229.5L1444.5 244L1445.5 259.5Z" fill="#101828" stroke="white" stroke-width="6" stroke-linecap="round" stroke-linejoin="round"/>
<path d="M1138.72 229V211.545H1150.07V214.196H1141.88V218.935H1149.49V221.585H1141.88V226.349H1150.14V229H1138.72ZM1156.25 211.545V229H1153.16V211.545H1156.25ZM1163.19 229.264C1162.36 229.264 1161.61 229.116 1160.95 228.821C1160.29 228.52 1159.76 228.077 1159.38 227.491C1159 226.906 1158.81 226.185 1158.81 225.327C1158.81 224.588 1158.94 223.977 1159.22 223.494C1159.49 223.011 1159.86 222.625 1160.33 222.335C1160.8 222.045 1161.34 221.827 1161.93 221.679C1162.52 221.526 1163.14 221.415 1163.78 221.347C1164.54 221.267 1165.17 221.196 1165.64 221.134C1166.12 221.065 1166.47 220.963 1166.68 220.827C1166.9 220.685 1167.01 220.466 1167.01 220.17V220.119C1167.01 219.477 1166.82 218.98 1166.44 218.628C1166.06 218.276 1165.51 218.099 1164.8 218.099C1164.04 218.099 1163.44 218.264 1163 218.594C1162.56 218.923 1162.27 219.312 1162.11 219.761L1159.23 219.352C1159.46 218.557 1159.84 217.892 1160.36 217.358C1160.88 216.818 1161.52 216.415 1162.28 216.148C1163.03 215.875 1163.87 215.739 1164.78 215.739C1165.41 215.739 1166.04 215.812 1166.67 215.96C1167.29 216.108 1167.86 216.352 1168.38 216.693C1168.9 217.028 1169.31 217.486 1169.62 218.065C1169.94 218.645 1170.1 219.369 1170.1 220.239V229H1167.13V227.202H1167.03C1166.84 227.565 1166.58 227.906 1166.24 228.224C1165.9 228.537 1165.48 228.79 1164.97 228.983C1164.46 229.17 1163.87 229.264 1163.19 229.264ZM1163.99 226.997C1164.61 226.997 1165.15 226.875 1165.6 226.631C1166.05 226.381 1166.4 226.051 1166.65 225.642C1166.9 225.233 1167.02 224.787 1167.02 224.304V222.761C1166.93 222.841 1166.76 222.915 1166.53 222.983C1166.3 223.051 1166.05 223.111 1165.76 223.162C1165.48 223.213 1165.2 223.259 1164.92 223.298C1164.64 223.338 1164.4 223.372 1164.19 223.401C1163.73 223.463 1163.32 223.565 1162.96 223.707C1162.59 223.849 1162.31 224.048 1162.1 224.304C1161.89 224.554 1161.78 224.878 1161.78 225.276C1161.78 225.844 1161.99 226.273 1162.4 226.562C1162.82 226.852 1163.35 226.997 1163.99 226.997ZM1173.03 229V227.04L1179.78 218.577V218.466H1173.25V215.909H1183.56V218.014L1177.13 226.332V226.443H1183.78V229H1173.03ZM1186.68 229V215.909H1189.76V229H1186.68ZM1198.63 234.182C1197.52 234.182 1196.57 234.031 1195.77 233.73C1194.98 233.435 1194.34 233.037 1193.86 232.537C1193.37 232.037 1193.04 231.483 1192.85 230.875L1195.63 230.202C1195.75 230.457 1195.94 230.71 1196.18 230.96C1196.41 231.216 1196.74 231.426 1197.14 231.591C1197.55 231.761 1198.06 231.847 1198.68 231.847C1199.56 231.847 1200.28 231.634 1200.85 231.207C1201.43 230.787 1201.72 230.094 1201.72 229.128V226.648H1201.56C1201.4 226.966 1201.17 227.293 1200.86 227.628C1200.56 227.963 1200.16 228.244 1199.66 228.472C1199.17 228.699 1198.54 228.812 1197.79 228.812C1196.79 228.812 1195.88 228.577 1195.06 228.105C1194.25 227.628 1193.6 226.918 1193.12 225.974C1192.64 225.026 1192.4 223.838 1192.4 222.412C1192.4 220.974 1192.64 219.761 1193.12 218.773C1193.6 217.778 1194.25 217.026 1195.07 216.514C1195.89 215.997 1196.8 215.739 1197.8 215.739C1198.57 215.739 1199.2 215.869 1199.7 216.131C1200.2 216.386 1200.59 216.696 1200.89 217.06C1201.18 217.418 1201.41 217.756 1201.56 218.074H1201.73V215.909H1204.77V229.213C1204.77 230.332 1204.51 231.259 1203.97 231.991C1203.44 232.724 1202.71 233.273 1201.78 233.636C1200.86 234 1199.81 234.182 1198.63 234.182ZM1198.66 226.392C1199.31 226.392 1199.87 226.233 1200.33 225.915C1200.79 225.597 1201.14 225.139 1201.37 224.543C1201.61 223.946 1201.73 223.23 1201.73 222.395C1201.73 221.571 1201.61 220.849 1201.37 220.23C1201.14 219.611 1200.79 219.131 1200.33 218.79C1199.88 218.443 1199.32 218.27 1198.66 218.27C1197.97 218.27 1197.39 218.449 1196.93 218.807C1196.47 219.165 1196.13 219.656 1195.89 220.281C1195.66 220.901 1195.54 221.605 1195.54 222.395C1195.54 223.196 1195.66 223.898 1195.89 224.5C1196.13 225.097 1196.48 225.562 1196.94 225.898C1197.41 226.227 1197.98 226.392 1198.66 226.392ZM1200.44 211.409H1202.75C1202.75 212.403 1202.39 213.21 1201.66 213.83C1200.95 214.443 1199.98 214.75 1198.75 214.75C1197.53 214.75 1196.56 214.443 1195.84 213.83C1195.13 213.21 1194.77 212.403 1194.78 211.409H1197.07C1197.07 211.818 1197.2 212.185 1197.45 212.509C1197.7 212.827 1198.14 212.986 1198.75 212.986C1199.35 212.986 1199.78 212.827 1200.04 212.509C1200.3 212.19 1200.43 211.824 1200.44 211.409Z" fill="#D0D5DD"/>
<path d="M659 217.5L644 243.5L647 263H651.5L661 261L666 260.5L705 269L738 288.5L756 294L776.5 303.5L789 326L787.5 339.5L773 377.5L771.5 387.5L766.5 395.5L762.5 399.5L756.5 409.5L743 458L732.5 477.5L720 493.5L705.5 506.5L695 519.5V539L704 554L719.5 559.5L748 577L747.5 587L749.5 596.5L746 611.5L735 619L718.5 618.5L702 620.5L667 633L634.5 638.5L620 646L596.5 671L576.5 664.5L569 635L556 627L544 644L512.5 658.5L501 641.5L487 628.5L478 622L468 619.5L439.5 625L429.5 629L421 630.5L416.5 625.5L410 628L407.5 629.5L406 632.5L403.5 633L392.5 620L391.5 598L388.5 594L385 590.5L382 581L384 571L391.5 563L397 553.5L397.5 527.5L404.5 518L409.5 515.5L418 507L419 493.5L410.5 473L409 457.5L409.5 447.5L412.5 425.5L420.5 404.5L433.5 345.5L441.5 325L456 311L465.5 301L474 289L494 265.5L502 252L505.5 234.5L510.5 224.5L519 219L553.5 210.5L587.5 215L594 219.5L600.5 222.5L659 217.5Z" fill="#B42318" stroke="white" stroke-width="6" stroke-linecap="round" stroke-linejoin="round"/>
<path d="M482.722 466V448.545H485.884V456.565H486.097L492.906 448.545H496.767L490.017 456.378L496.827 466H493.026L487.818 458.517L485.884 460.801V466H482.722ZM502.594 466.264C501.765 466.264 501.018 466.116 500.353 465.821C499.694 465.52 499.171 465.077 498.785 464.491C498.404 463.906 498.214 463.185 498.214 462.327C498.214 461.588 498.35 460.977 498.623 460.494C498.896 460.011 499.268 459.625 499.739 459.335C500.211 459.045 500.742 458.827 501.333 458.679C501.93 458.526 502.546 458.415 503.183 458.347C503.95 458.267 504.572 458.196 505.049 458.134C505.526 458.065 505.873 457.963 506.089 457.827C506.31 457.685 506.421 457.466 506.421 457.17V457.119C506.421 456.477 506.231 455.98 505.85 455.628C505.469 455.276 504.921 455.099 504.205 455.099C503.45 455.099 502.85 455.264 502.407 455.594C501.969 455.923 501.674 456.312 501.521 456.761L498.64 456.352C498.867 455.557 499.242 454.892 499.765 454.358C500.288 453.818 500.927 453.415 501.683 453.148C502.438 452.875 503.273 452.739 504.188 452.739C504.819 452.739 505.447 452.812 506.072 452.96C506.697 453.108 507.268 453.352 507.785 453.693C508.302 454.028 508.717 454.486 509.029 455.065C509.347 455.645 509.506 456.369 509.506 457.239V466H506.54V464.202H506.438C506.251 464.565 505.987 464.906 505.646 465.224C505.31 465.537 504.887 465.79 504.376 465.983C503.87 466.17 503.276 466.264 502.594 466.264ZM503.396 463.997C504.015 463.997 504.552 463.875 505.006 463.631C505.461 463.381 505.81 463.051 506.055 462.642C506.305 462.233 506.43 461.787 506.43 461.304V459.761C506.333 459.841 506.168 459.915 505.935 459.983C505.708 460.051 505.452 460.111 505.168 460.162C504.884 460.213 504.603 460.259 504.325 460.298C504.046 460.338 503.805 460.372 503.6 460.401C503.14 460.463 502.728 460.565 502.364 460.707C502.001 460.849 501.714 461.048 501.504 461.304C501.293 461.554 501.188 461.878 501.188 462.276C501.188 462.844 501.396 463.273 501.81 463.562C502.225 463.852 502.754 463.997 503.396 463.997ZM515.694 458.33V466H512.609V448.545H515.626V455.134H515.779C516.086 454.395 516.56 453.812 517.202 453.386C517.85 452.955 518.674 452.739 519.674 452.739C520.583 452.739 521.376 452.929 522.052 453.31C522.728 453.69 523.251 454.247 523.62 454.98C523.995 455.713 524.183 456.608 524.183 457.665V466H521.097V458.142C521.097 457.261 520.87 456.577 520.415 456.088C519.967 455.594 519.336 455.347 518.523 455.347C517.978 455.347 517.489 455.466 517.058 455.705C516.631 455.937 516.296 456.276 516.052 456.719C515.813 457.162 515.694 457.699 515.694 458.33ZM527.327 466V452.909H530.319V455.091H530.455C530.694 454.335 531.103 453.753 531.683 453.344C532.268 452.929 532.935 452.722 533.685 452.722C533.856 452.722 534.046 452.73 534.256 452.747C534.472 452.759 534.651 452.778 534.793 452.807V455.645C534.663 455.599 534.455 455.56 534.171 455.526C533.893 455.486 533.623 455.466 533.362 455.466C532.799 455.466 532.293 455.588 531.844 455.832C531.401 456.071 531.052 456.403 530.796 456.83C530.54 457.256 530.413 457.747 530.413 458.304V466H527.327ZM540.376 466.264C539.546 466.264 538.799 466.116 538.134 465.821C537.475 465.52 536.952 465.077 536.566 464.491C536.185 463.906 535.995 463.185 535.995 462.327C535.995 461.588 536.131 460.977 536.404 460.494C536.677 460.011 537.049 459.625 537.521 459.335C537.992 459.045 538.523 458.827 539.114 458.679C539.711 458.526 540.327 458.415 540.964 458.347C541.731 458.267 542.353 458.196 542.83 458.134C543.308 458.065 543.654 457.963 543.87 457.827C544.092 457.685 544.202 457.466 544.202 457.17V457.119C544.202 456.477 544.012 455.98 543.631 455.628C543.251 455.276 542.702 455.099 541.987 455.099C541.231 455.099 540.631 455.264 540.188 455.594C539.751 455.923 539.455 456.312 539.302 456.761L536.421 456.352C536.648 455.557 537.023 454.892 537.546 454.358C538.069 453.818 538.708 453.415 539.464 453.148C540.219 452.875 541.055 452.739 541.969 452.739C542.6 452.739 543.228 452.812 543.853 452.96C544.478 453.108 545.049 453.352 545.566 453.693C546.083 454.028 546.498 454.486 546.81 455.065C547.129 455.645 547.288 456.369 547.288 457.239V466H544.322V464.202H544.219C544.032 464.565 543.768 464.906 543.427 465.224C543.092 465.537 542.668 465.79 542.157 465.983C541.651 466.17 541.058 466.264 540.376 466.264ZM541.177 463.997C541.796 463.997 542.333 463.875 542.788 463.631C543.242 463.381 543.592 463.051 543.836 462.642C544.086 462.233 544.211 461.787 544.211 461.304V459.761C544.114 459.841 543.95 459.915 543.717 459.983C543.489 460.051 543.234 460.111 542.95 460.162C542.665 460.213 542.384 460.259 542.106 460.298C541.827 460.338 541.586 460.372 541.381 460.401C540.921 460.463 540.509 460.565 540.146 460.707C539.782 460.849 539.495 461.048 539.285 461.304C539.075 461.554 538.969 461.878 538.969 462.276C538.969 462.844 539.177 463.273 539.592 463.562C540.006 463.852 540.535 463.997 541.177 463.997ZM550.39 466V452.909H553.339V455.134H553.492C553.765 454.384 554.217 453.798 554.847 453.378C555.478 452.952 556.231 452.739 557.106 452.739C557.992 452.739 558.739 452.955 559.347 453.386C559.961 453.812 560.393 454.395 560.643 455.134H560.779C561.069 454.406 561.558 453.827 562.245 453.395C562.938 452.957 563.759 452.739 564.708 452.739C565.913 452.739 566.896 453.119 567.657 453.881C568.418 454.642 568.799 455.753 568.799 457.213V466H565.705V457.69C565.705 456.878 565.489 456.284 565.058 455.909C564.626 455.528 564.097 455.338 563.472 455.338C562.728 455.338 562.146 455.571 561.725 456.037C561.31 456.497 561.103 457.097 561.103 457.835V466H558.077V457.562C558.077 456.886 557.873 456.347 557.464 455.943C557.06 455.54 556.532 455.338 555.879 455.338C555.435 455.338 555.032 455.452 554.668 455.679C554.305 455.901 554.015 456.216 553.799 456.625C553.583 457.028 553.475 457.5 553.475 458.04V466H550.39ZM575.696 466.264C574.866 466.264 574.119 466.116 573.455 465.821C572.795 465.52 572.273 465.077 571.886 464.491C571.506 463.906 571.315 463.185 571.315 462.327C571.315 461.588 571.452 460.977 571.724 460.494C571.997 460.011 572.369 459.625 572.841 459.335C573.313 459.045 573.844 458.827 574.435 458.679C575.031 458.526 575.648 458.415 576.284 458.347C577.051 458.267 577.673 458.196 578.151 458.134C578.628 458.065 578.974 457.963 579.19 457.827C579.412 457.685 579.523 457.466 579.523 457.17V457.119C579.523 456.477 579.332 455.98 578.952 455.628C578.571 455.276 578.023 455.099 577.307 455.099C576.551 455.099 575.952 455.264 575.509 455.594C575.071 455.923 574.776 456.312 574.622 456.761L571.741 456.352C571.969 455.557 572.344 454.892 572.866 454.358C573.389 453.818 574.028 453.415 574.784 453.148C575.54 452.875 576.375 452.739 577.29 452.739C577.92 452.739 578.548 452.812 579.173 452.96C579.798 453.108 580.369 453.352 580.886 453.693C581.403 454.028 581.818 454.486 582.131 455.065C582.449 455.645 582.608 456.369 582.608 457.239V466H579.642V464.202H579.54C579.352 464.565 579.088 464.906 578.747 465.224C578.412 465.537 577.989 465.79 577.477 465.983C576.972 466.17 576.378 466.264 575.696 466.264ZM576.497 463.997C577.116 463.997 577.653 463.875 578.108 463.631C578.563 463.381 578.912 463.051 579.156 462.642C579.406 462.233 579.531 461.787 579.531 461.304V459.761C579.435 459.841 579.27 459.915 579.037 459.983C578.81 460.051 578.554 460.111 578.27 460.162C577.986 460.213 577.705 460.259 577.426 460.298C577.148 460.338 576.906 460.372 576.702 460.401C576.241 460.463 575.83 460.565 575.466 460.707C575.102 460.849 574.815 461.048 574.605 461.304C574.395 461.554 574.29 461.878 574.29 462.276C574.29 462.844 574.497 463.273 574.912 463.562C575.327 463.852 575.855 463.997 576.497 463.997ZM588.795 458.33V466H585.71V452.909H588.659V455.134H588.812C589.114 454.401 589.594 453.818 590.253 453.386C590.918 452.955 591.739 452.739 592.716 452.739C593.619 452.739 594.406 452.932 595.077 453.318C595.753 453.705 596.276 454.264 596.645 454.997C597.02 455.73 597.205 456.619 597.199 457.665V466H594.114V458.142C594.114 457.267 593.886 456.582 593.432 456.088C592.983 455.594 592.361 455.347 591.565 455.347C591.026 455.347 590.545 455.466 590.125 455.705C589.71 455.937 589.384 456.276 589.145 456.719C588.912 457.162 588.795 457.699 588.795 458.33ZM600.335 466V452.909H603.284V455.134H603.438C603.71 454.384 604.162 453.798 604.793 453.378C605.423 452.952 606.176 452.739 607.051 452.739C607.938 452.739 608.685 452.955 609.293 453.386C609.906 453.812 610.338 454.395 610.588 455.134H610.724C611.014 454.406 611.503 453.827 612.19 453.395C612.884 452.957 613.705 452.739 614.653 452.739C615.858 452.739 616.841 453.119 617.602 453.881C618.364 454.642 618.744 455.753 618.744 457.213V466H615.651V457.69C615.651 456.878 615.435 456.284 615.003 455.909C614.571 455.528 614.043 455.338 613.418 455.338C612.673 455.338 612.091 455.571 611.67 456.037C611.256 456.497 611.048 457.097 611.048 457.835V466H608.023V457.562C608.023 456.886 607.818 456.347 607.409 455.943C607.006 455.54 606.477 455.338 605.824 455.338C605.381 455.338 604.977 455.452 604.614 455.679C604.25 455.901 603.96 456.216 603.744 456.625C603.528 457.028 603.42 457.5 603.42 458.04V466H600.335ZM625.641 466.264C624.812 466.264 624.065 466.116 623.4 465.821C622.741 465.52 622.218 465.077 621.832 464.491C621.451 463.906 621.261 463.185 621.261 462.327C621.261 461.588 621.397 460.977 621.67 460.494C621.942 460.011 622.315 459.625 622.786 459.335C623.258 459.045 623.789 458.827 624.38 458.679C624.977 458.526 625.593 458.415 626.229 458.347C626.996 458.267 627.619 458.196 628.096 458.134C628.573 458.065 628.92 457.963 629.136 457.827C629.357 457.685 629.468 457.466 629.468 457.17V457.119C629.468 456.477 629.278 455.98 628.897 455.628C628.516 455.276 627.968 455.099 627.252 455.099C626.496 455.099 625.897 455.264 625.454 455.594C625.016 455.923 624.721 456.312 624.567 456.761L621.687 456.352C621.914 455.557 622.289 454.892 622.812 454.358C623.335 453.818 623.974 453.415 624.729 453.148C625.485 452.875 626.32 452.739 627.235 452.739C627.866 452.739 628.494 452.812 629.119 452.96C629.744 453.108 630.315 453.352 630.832 453.693C631.349 454.028 631.763 454.486 632.076 455.065C632.394 455.645 632.553 456.369 632.553 457.239V466H629.587V464.202H629.485C629.298 464.565 629.033 464.906 628.692 465.224C628.357 465.537 627.934 465.79 627.423 465.983C626.917 466.17 626.323 466.264 625.641 466.264ZM626.442 463.997C627.062 463.997 627.599 463.875 628.053 463.631C628.508 463.381 628.857 463.051 629.102 462.642C629.352 462.233 629.477 461.787 629.477 461.304V459.761C629.38 459.841 629.215 459.915 628.982 459.983C628.755 460.051 628.499 460.111 628.215 460.162C627.931 460.213 627.65 460.259 627.371 460.298C627.093 460.338 626.852 460.372 626.647 460.401C626.187 460.463 625.775 460.565 625.411 460.707C625.048 460.849 624.761 461.048 624.55 461.304C624.34 461.554 624.235 461.878 624.235 462.276C624.235 462.844 624.442 463.273 624.857 463.562C625.272 463.852 625.8 463.997 626.442 463.997ZM635.656 466V452.909H638.647V455.091H638.783C639.022 454.335 639.431 453.753 640.011 453.344C640.596 452.929 641.263 452.722 642.013 452.722C642.184 452.722 642.374 452.73 642.585 452.747C642.8 452.759 642.979 452.778 643.121 452.807V455.645C642.991 455.599 642.783 455.56 642.499 455.526C642.221 455.486 641.951 455.466 641.69 455.466C641.127 455.466 640.621 455.588 640.173 455.832C639.729 456.071 639.38 456.403 639.124 456.83C638.869 457.256 638.741 457.747 638.741 458.304V466H635.656ZM648.704 466.264C647.874 466.264 647.127 466.116 646.462 465.821C645.803 465.52 645.281 465.077 644.894 464.491C644.513 463.906 644.323 463.185 644.323 462.327C644.323 461.588 644.46 460.977 644.732 460.494C645.005 460.011 645.377 459.625 645.849 459.335C646.32 459.045 646.852 458.827 647.442 458.679C648.039 458.526 648.656 458.415 649.292 458.347C650.059 458.267 650.681 458.196 651.158 458.134C651.636 458.065 651.982 457.963 652.198 457.827C652.42 457.685 652.531 457.466 652.531 457.17V457.119C652.531 456.477 652.34 455.98 651.96 455.628C651.579 455.276 651.031 455.099 650.315 455.099C649.559 455.099 648.96 455.264 648.516 455.594C648.079 455.923 647.783 456.312 647.63 456.761L644.749 456.352C644.977 455.557 645.352 454.892 645.874 454.358C646.397 453.818 647.036 453.415 647.792 453.148C648.548 452.875 649.383 452.739 650.298 452.739C650.928 452.739 651.556 452.812 652.181 452.96C652.806 453.108 653.377 453.352 653.894 453.693C654.411 454.028 654.826 454.486 655.138 455.065C655.457 455.645 655.616 456.369 655.616 457.239V466H652.65V464.202H652.548C652.36 464.565 652.096 464.906 651.755 465.224C651.42 465.537 650.996 465.79 650.485 465.983C649.979 466.17 649.386 466.264 648.704 466.264ZM649.505 463.997C650.124 463.997 650.661 463.875 651.116 463.631C651.57 463.381 651.92 463.051 652.164 462.642C652.414 462.233 652.539 461.787 652.539 461.304V459.761C652.442 459.841 652.278 459.915 652.045 459.983C651.817 460.051 651.562 460.111 651.278 460.162C650.994 460.213 650.712 460.259 650.434 460.298C650.156 460.338 649.914 460.372 649.71 460.401C649.249 460.463 648.837 460.565 648.474 460.707C648.11 460.849 647.823 461.048 647.613 461.304C647.403 461.554 647.298 461.878 647.298 462.276C647.298 462.844 647.505 463.273 647.92 463.562C648.335 463.852 648.863 463.997 649.505 463.997ZM669.065 456.369L666.252 456.676C666.173 456.392 666.033 456.125 665.835 455.875C665.641 455.625 665.38 455.423 665.05 455.27C664.721 455.116 664.317 455.04 663.84 455.04C663.198 455.04 662.658 455.179 662.221 455.457C661.789 455.736 661.576 456.097 661.582 456.54C661.576 456.92 661.715 457.23 661.999 457.469C662.289 457.707 662.766 457.903 663.431 458.057L665.664 458.534C666.903 458.801 667.823 459.224 668.425 459.804C669.033 460.384 669.34 461.142 669.346 462.08C669.34 462.903 669.099 463.631 668.621 464.261C668.15 464.886 667.494 465.375 666.653 465.727C665.812 466.08 664.846 466.256 663.755 466.256C662.153 466.256 660.863 465.92 659.886 465.25C658.908 464.574 658.326 463.634 658.138 462.429L661.147 462.139C661.283 462.73 661.573 463.176 662.016 463.477C662.46 463.778 663.036 463.929 663.746 463.929C664.479 463.929 665.067 463.778 665.511 463.477C665.96 463.176 666.184 462.804 666.184 462.361C666.184 461.986 666.039 461.676 665.749 461.432C665.465 461.187 665.022 461 664.42 460.869L662.187 460.401C660.931 460.139 660.002 459.699 659.4 459.08C658.798 458.455 658.499 457.665 658.505 456.71C658.499 455.903 658.718 455.205 659.161 454.614C659.61 454.017 660.232 453.557 661.028 453.233C661.829 452.903 662.752 452.739 663.798 452.739C665.332 452.739 666.539 453.065 667.42 453.719C668.306 454.372 668.854 455.256 669.065 456.369ZM662.979 465.932H664.65L664.513 466.656C665.048 466.736 665.499 466.94 665.869 467.27C666.244 467.605 666.431 468.085 666.431 468.71C666.437 469.517 666.076 470.165 665.349 470.653C664.621 471.142 663.585 471.386 662.238 471.386L662.204 469.869C662.857 469.869 663.377 469.781 663.763 469.605C664.15 469.435 664.346 469.162 664.352 468.787C664.363 468.423 664.227 468.156 663.942 467.986C663.664 467.821 663.221 467.707 662.613 467.645L662.979 465.932Z" fill="white"/>
<path d="M1025 77L1006.5 78L999.5 87.5V101.5L1004 110L1007 119.5L1008.5 140.5V147.5L1011.5 158L1010.5 160V164.5V168L1007 169L978.5 166.5L971.5 167.5L968.5 171.5L970.5 177L969 183L965.5 188L962 190L955.5 191L950.5 194L946.5 198.5L943.5 203.5L940.5 213L936.5 220L937.5 222.5L939 224.5L940 227.5L940.5 233L943 240L946.5 246L950.5 249.5L953.5 246.5L956.5 248L961 254L964.5 257L968 259L971.5 260L986.5 262L993.5 264L999 269L1004 267.5L1025.5 278.5L1033 279L1048.5 273L1057 272L1063 276.5L1061 279L1068 284L1070 286L1076 295.5L1076.5 297.5L1083 298.5L1087.5 301.5L1095 308.5L1104.5 310L1125.5 302.5L1136.5 304L1141 309L1144 316L1145 324L1136.5 354.5L1124.5 368L1110.5 375L1099 377.5L1088.5 382.5L1081.5 384L1074 384.5L1055 388.5L1037 385.5H1018.5L1003 381.5L999 378.5L994.5 376.5L992.5 369.5L998 366L1008 356.5L1007 345.5L992 342.5L976.5 347H958L939 369L922.5 394L902.5 405L895.5 418L895 435.5L879 449.5L857.5 455L848 459.5L839 462.5L827.5 461L816.5 457.5L792.5 461L769.5 470.5L732.5 477.5L743 458L756.5 409.5L762.5 399.5L766.5 395.5L771.5 387.5L773 377.5L787.5 339.5L789 326L776.5 303.5L756 294L738 288.5L705 269L666 260.5L661 261L651.5 263H647L644 243.5L659 217.5L674.5 210.5L687.5 198L701 182.5L706.5 180.5L718 173L736.5 153L740.5 140.5L739 133L736 126L731.5 111L729 95L734.5 82L746 79L768 90L790 85.5L799 79L809 75L818.5 68.5L828 64L848.5 63.5L857 59.5L866.5 58L884 60.5L901 55.5L919.5 41L940 34L960.5 44.5L985.5 46L997 50.5L1008 57L1025 77Z" fill="#101828" stroke="white" stroke-width="6" stroke-linecap="round" stroke-linejoin="round"/>
<path d="M796.722 236.545H800.591L805.773 249.193H805.977L811.159 236.545H815.028V254H811.994V242.009H811.832L807.009 253.949H804.741L799.918 241.983H799.756V254H796.722V236.545ZM822.102 254.264C821.273 254.264 820.526 254.116 819.861 253.821C819.202 253.52 818.679 253.077 818.293 252.491C817.912 251.906 817.722 251.185 817.722 250.327C817.722 249.588 817.858 248.977 818.131 248.494C818.403 248.011 818.776 247.625 819.247 247.335C819.719 247.045 820.25 246.827 820.841 246.679C821.438 246.526 822.054 246.415 822.69 246.347C823.457 246.267 824.08 246.196 824.557 246.134C825.034 246.065 825.381 245.963 825.597 245.827C825.818 245.685 825.929 245.466 825.929 245.17V245.119C825.929 244.477 825.739 243.98 825.358 243.628C824.977 243.276 824.429 243.099 823.713 243.099C822.957 243.099 822.358 243.264 821.915 243.594C821.477 243.923 821.182 244.312 821.028 244.761L818.148 244.352C818.375 243.557 818.75 242.892 819.273 242.358C819.795 241.818 820.435 241.415 821.19 241.148C821.946 240.875 822.781 240.739 823.696 240.739C824.327 240.739 824.955 240.812 825.58 240.96C826.205 241.108 826.776 241.352 827.293 241.693C827.81 242.028 828.224 242.486 828.537 243.065C828.855 243.645 829.014 244.369 829.014 245.239V254H826.048V252.202H825.946C825.759 252.565 825.494 252.906 825.153 253.224C824.818 253.537 824.395 253.79 823.884 253.983C823.378 254.17 822.784 254.264 822.102 254.264ZM822.903 251.997C823.523 251.997 824.06 251.875 824.514 251.631C824.969 251.381 825.318 251.051 825.562 250.642C825.812 250.233 825.938 249.787 825.938 249.304V247.761C825.841 247.841 825.676 247.915 825.443 247.983C825.216 248.051 824.96 248.111 824.676 248.162C824.392 248.213 824.111 248.259 823.832 248.298C823.554 248.338 823.313 248.372 823.108 248.401C822.648 248.463 822.236 248.565 821.872 248.707C821.509 248.849 821.222 249.048 821.011 249.304C820.801 249.554 820.696 249.878 820.696 250.276C820.696 250.844 820.903 251.273 821.318 251.562C821.733 251.852 822.261 251.997 822.903 251.997ZM835.202 236.545V254H832.116V236.545H835.202ZM842.141 254.264C841.312 254.264 840.565 254.116 839.9 253.821C839.241 253.52 838.718 253.077 838.332 252.491C837.951 251.906 837.761 251.185 837.761 250.327C837.761 249.588 837.897 248.977 838.17 248.494C838.442 248.011 838.815 247.625 839.286 247.335C839.758 247.045 840.289 246.827 840.88 246.679C841.477 246.526 842.093 246.415 842.729 246.347C843.496 246.267 844.119 246.196 844.596 246.134C845.073 246.065 845.42 245.963 845.636 245.827C845.857 245.685 845.968 245.466 845.968 245.17V245.119C845.968 244.477 845.778 243.98 845.397 243.628C845.016 243.276 844.468 243.099 843.752 243.099C842.996 243.099 842.397 243.264 841.954 243.594C841.516 243.923 841.221 244.312 841.067 244.761L838.187 244.352C838.414 243.557 838.789 242.892 839.312 242.358C839.835 241.818 840.474 241.415 841.229 241.148C841.985 240.875 842.82 240.739 843.735 240.739C844.366 240.739 844.994 240.812 845.619 240.96C846.244 241.108 846.815 241.352 847.332 241.693C847.849 242.028 848.263 242.486 848.576 243.065C848.894 243.645 849.053 244.369 849.053 245.239V254H846.087V252.202H845.985C845.798 252.565 845.533 252.906 845.192 253.224C844.857 253.537 844.434 253.79 843.923 253.983C843.417 254.17 842.823 254.264 842.141 254.264ZM842.942 251.997C843.562 251.997 844.099 251.875 844.553 251.631C845.008 251.381 845.357 251.051 845.602 250.642C845.852 250.233 845.977 249.787 845.977 249.304V247.761C845.88 247.841 845.715 247.915 845.482 247.983C845.255 248.051 844.999 248.111 844.715 248.162C844.431 248.213 844.15 248.259 843.871 248.298C843.593 248.338 843.352 248.372 843.147 248.401C842.687 248.463 842.275 248.565 841.911 248.707C841.548 248.849 841.261 249.048 841.05 249.304C840.84 249.554 840.735 249.878 840.735 250.276C840.735 250.844 840.942 251.273 841.357 251.562C841.772 251.852 842.3 251.997 842.942 251.997ZM858.692 240.909V243.295H851.167V240.909H858.692ZM853.025 237.773H856.11V250.062C856.11 250.477 856.173 250.795 856.298 251.017C856.428 251.233 856.599 251.381 856.809 251.46C857.019 251.54 857.252 251.58 857.508 251.58C857.701 251.58 857.877 251.565 858.036 251.537C858.201 251.509 858.326 251.483 858.411 251.46L858.931 253.872C858.766 253.929 858.531 253.991 858.224 254.06C857.923 254.128 857.553 254.168 857.116 254.179C856.343 254.202 855.647 254.085 855.028 253.83C854.408 253.568 853.917 253.165 853.553 252.619C853.195 252.074 853.019 251.392 853.025 250.574V237.773ZM863.19 258.909C862.77 258.909 862.381 258.875 862.023 258.807C861.67 258.744 861.389 258.67 861.179 258.585L861.895 256.182C862.344 256.313 862.744 256.375 863.097 256.369C863.449 256.364 863.759 256.253 864.026 256.037C864.298 255.827 864.528 255.474 864.716 254.98L864.98 254.273L860.233 240.909H863.506L866.523 250.795H866.659L869.685 240.909H872.966L867.724 255.585C867.48 256.278 867.156 256.872 866.753 257.366C866.349 257.866 865.855 258.247 865.27 258.509C864.69 258.776 863.997 258.909 863.19 258.909ZM878.493 254.264C877.663 254.264 876.916 254.116 876.251 253.821C875.592 253.52 875.07 253.077 874.683 252.491C874.303 251.906 874.112 251.185 874.112 250.327C874.112 249.588 874.249 248.977 874.521 248.494C874.794 248.011 875.166 247.625 875.638 247.335C876.109 247.045 876.641 246.827 877.232 246.679C877.828 246.526 878.445 246.415 879.081 246.347C879.848 246.267 880.47 246.196 880.947 246.134C881.425 246.065 881.771 245.963 881.987 245.827C882.209 245.685 882.32 245.466 882.32 245.17V245.119C882.32 244.477 882.129 243.98 881.749 243.628C881.368 243.276 880.82 243.099 880.104 243.099C879.348 243.099 878.749 243.264 878.305 243.594C877.868 243.923 877.572 244.312 877.419 244.761L874.538 244.352C874.766 243.557 875.141 242.892 875.663 242.358C876.186 241.818 876.825 241.415 877.581 241.148C878.337 240.875 879.172 240.739 880.087 240.739C880.717 240.739 881.345 240.812 881.97 240.96C882.595 241.108 883.166 241.352 883.683 241.693C884.2 242.028 884.615 242.486 884.928 243.065C885.246 243.645 885.405 244.369 885.405 245.239V254H882.439V252.202H882.337C882.149 252.565 881.885 252.906 881.544 253.224C881.209 253.537 880.786 253.79 880.274 253.983C879.768 254.17 879.175 254.264 878.493 254.264ZM879.294 251.997C879.913 251.997 880.45 251.875 880.905 251.631C881.359 251.381 881.709 251.051 881.953 250.642C882.203 250.233 882.328 249.787 882.328 249.304V247.761C882.232 247.841 882.067 247.915 881.834 247.983C881.607 248.051 881.351 248.111 881.067 248.162C880.783 248.213 880.501 248.259 880.223 248.298C879.945 248.338 879.703 248.372 879.499 248.401C879.038 248.463 878.626 248.565 878.263 248.707C877.899 248.849 877.612 249.048 877.402 249.304C877.192 249.554 877.087 249.878 877.087 250.276C877.087 250.844 877.294 251.273 877.709 251.562C878.124 251.852 878.652 251.997 879.294 251.997Z" fill="#D0D5DD"/>
<path d="M340.5 744L352 742L362.5 745L373.5 745.5L385.5 742L397.5 746L406 755L416 761.5H429L442 760L459 777L480 786.5L484.5 790.5L486.5 797.5L490 800L494 800.5L496.5 803.5H491L492 811.5L489 817.5L485 823.5L481.5 830L480.5 837V843.5L479.5 849.5L476.5 857.5L473 871V885.5L471.5 899.5L464 912L463 917L463.5 922.5L468.5 940L471.5 944L477 946.5L479 951L479.5 956.5L476 964L477.5 967L486 968L490.5 969.5L493.5 973L496 978L498 983.5L499 988V995L497.5 998L479 1001.5H474L454.5 998.5L449.5 999L446.5 1000L445.5 1004.5L444 1006.5L442 1007.5L431.5 1006L428 1004.5L425 1002.5L421.5 998.5L418.5 1001.5L422.5 1006L422 1008.5L418.5 1013L418 1018L417 1064.5L417.5 1074L412 1075.5L402 1071.5L396.5 1074L394.5 1085L390.5 1086L384 1084.5L375.5 1087.5L370 1097L368.5 1119.5L365.5 1129L360.5 1130L345.5 1119L337.5 1115.5L329.5 1115L325.5 1114L322.5 1111.5L322 1107.5L322.5 1103.5V1099L319 1095.5L314 1096.5L309 1098L303.5 1099.5L301.5 1098.5L304 1094L315.5 1074L318.5 1071.5L318 1066L311 1043.5L292.5 1013L289 1008.5L286 1003L283 993L279.5 988.5L275 985L272 981L269 973.5L269.5 968.5L276.5 958L278.5 955L281 953.5L287 952.5L288.5 951L291.5 943.5L293.5 941L298 938.5L300.5 936.5L302 933.5L303 927L306.5 925L309.5 921.5L319.5 918L322 916.5L334 901.5L336 898L339 897.5L367 879.5L371 879L373.5 876.5L377 870.5L379.5 864L380.5 859V854.5L378 849L377 843V822.5L376 817.5L373.5 812L358 790L349.5 781L339.5 774L329.5 771.5L320.5 775L311.5 783L307 788.5L302.5 782V768.5L324 744L329 740.5L334.5 742L340.5 744Z" fill="#101828" stroke="white" stroke-width="6" stroke-linecap="round" stroke-linejoin="round"/>
<path d="M344.722 960V942.545H347.884V949.935H355.972V942.545H359.142V960H355.972V952.585H347.884V960H344.722ZM366.212 960.264C365.382 960.264 364.635 960.116 363.97 959.821C363.311 959.52 362.788 959.077 362.402 958.491C362.021 957.906 361.831 957.185 361.831 956.327C361.831 955.588 361.967 954.977 362.24 954.494C362.513 954.011 362.885 953.625 363.357 953.335C363.828 953.045 364.359 952.827 364.95 952.679C365.547 952.526 366.163 952.415 366.8 952.347C367.567 952.267 368.189 952.196 368.666 952.134C369.143 952.065 369.49 951.963 369.706 951.827C369.928 951.685 370.038 951.466 370.038 951.17V951.119C370.038 950.477 369.848 949.98 369.467 949.628C369.087 949.276 368.538 949.099 367.822 949.099C367.067 949.099 366.467 949.264 366.024 949.594C365.587 949.923 365.291 950.312 365.138 950.761L362.257 950.352C362.484 949.557 362.859 948.892 363.382 948.358C363.905 947.818 364.544 947.415 365.3 947.148C366.055 946.875 366.891 946.739 367.805 946.739C368.436 946.739 369.064 946.812 369.689 946.96C370.314 947.108 370.885 947.352 371.402 947.693C371.919 948.028 372.334 948.486 372.646 949.065C372.964 949.645 373.124 950.369 373.124 951.239V960H370.158V958.202H370.055C369.868 958.565 369.604 958.906 369.263 959.224C368.928 959.537 368.504 959.79 367.993 959.983C367.487 960.17 366.893 960.264 366.212 960.264ZM367.013 957.997C367.632 957.997 368.169 957.875 368.624 957.631C369.078 957.381 369.428 957.051 369.672 956.642C369.922 956.233 370.047 955.787 370.047 955.304V953.761C369.95 953.841 369.786 953.915 369.553 953.983C369.325 954.051 369.07 954.111 368.786 954.162C368.501 954.213 368.22 954.259 367.942 954.298C367.663 954.338 367.422 954.372 367.217 954.401C366.757 954.463 366.345 954.565 365.982 954.707C365.618 954.849 365.331 955.048 365.121 955.304C364.911 955.554 364.805 955.878 364.805 956.276C364.805 956.844 365.013 957.273 365.428 957.562C365.842 957.852 366.371 957.997 367.013 957.997ZM382.763 946.909V949.295H375.237V946.909H382.763ZM377.095 943.773H380.18V956.062C380.18 956.477 380.243 956.795 380.368 957.017C380.499 957.233 380.669 957.381 380.879 957.46C381.089 957.54 381.322 957.58 381.578 957.58C381.771 957.58 381.947 957.565 382.107 957.537C382.271 957.509 382.396 957.483 382.482 957.46L383.001 959.872C382.837 959.929 382.601 959.991 382.294 960.06C381.993 960.128 381.624 960.168 381.186 960.179C380.413 960.202 379.717 960.085 379.098 959.83C378.479 959.568 377.987 959.165 377.624 958.619C377.266 958.074 377.089 957.392 377.095 956.574V943.773ZM389.11 960.264C388.281 960.264 387.533 960.116 386.869 959.821C386.21 959.52 385.687 959.077 385.3 958.491C384.92 957.906 384.729 957.185 384.729 956.327C384.729 955.588 384.866 954.977 385.138 954.494C385.411 954.011 385.783 953.625 386.255 953.335C386.727 953.045 387.258 952.827 387.849 952.679C388.445 952.526 389.062 952.415 389.698 952.347C390.465 952.267 391.087 952.196 391.565 952.134C392.042 952.065 392.388 951.963 392.604 951.827C392.826 951.685 392.937 951.466 392.937 951.17V951.119C392.937 950.477 392.746 949.98 392.366 949.628C391.985 949.276 391.437 949.099 390.721 949.099C389.965 949.099 389.366 949.264 388.923 949.594C388.485 949.923 388.19 950.312 388.036 950.761L385.156 950.352C385.383 949.557 385.758 948.892 386.281 948.358C386.803 947.818 387.442 947.415 388.198 947.148C388.954 946.875 389.789 946.739 390.704 946.739C391.335 946.739 391.962 946.812 392.587 946.96C393.212 947.108 393.783 947.352 394.3 947.693C394.817 948.028 395.232 948.486 395.545 949.065C395.863 949.645 396.022 950.369 396.022 951.239V960H393.056V958.202H392.954C392.766 958.565 392.502 958.906 392.161 959.224C391.826 959.537 391.403 959.79 390.891 959.983C390.386 960.17 389.792 960.264 389.11 960.264ZM389.911 957.997C390.531 957.997 391.067 957.875 391.522 957.631C391.977 957.381 392.326 957.051 392.57 956.642C392.82 956.233 392.945 955.787 392.945 955.304V953.761C392.849 953.841 392.684 953.915 392.451 953.983C392.224 954.051 391.968 954.111 391.684 954.162C391.4 954.213 391.119 954.259 390.84 954.298C390.562 954.338 390.32 954.372 390.116 954.401C389.656 954.463 389.244 954.565 388.88 954.707C388.516 954.849 388.229 955.048 388.019 955.304C387.809 955.554 387.704 955.878 387.704 956.276C387.704 956.844 387.911 957.273 388.326 957.562C388.741 957.852 389.269 957.997 389.911 957.997ZM400.573 964.909C400.153 964.909 399.763 964.875 399.406 964.807C399.053 964.744 398.772 964.67 398.562 964.585L399.278 962.182C399.727 962.313 400.127 962.375 400.479 962.369C400.832 962.364 401.141 962.253 401.408 962.037C401.681 961.827 401.911 961.474 402.099 960.98L402.363 960.273L397.616 946.909H400.888L403.906 956.795H404.042L407.067 946.909H410.349L405.107 961.585C404.863 962.278 404.539 962.872 404.136 963.366C403.732 963.866 403.238 964.247 402.653 964.509C402.073 964.776 401.38 964.909 400.573 964.909Z" fill="#D0D5DD"/>
<path d="M1737.5 240.5L1739 252L1729 257.5L1720.5 258.5L1712 261L1698.5 267.5L1692.5 276L1690.5 288L1685 306L1682 325.5L1685.5 361.5L1683.5 380L1679.5 388L1674.5 395L1662.5 435L1652 447L1639.5 456L1637 464L1639.5 473.5L1641.5 486L1647.5 496L1630.5 503.5L1539.5 501.5L1511 507.5L1507.5 515L1495.5 531.5L1474.5 533L1445.5 555.5L1432.5 560.5L1404 580.5L1392.5 591L1367 624L1355 610.5L1346 593.5L1337 567L1336 562L1333.5 552.5L1329.5 527.5L1331.5 492L1327.5 484L1323 482.5L1318 480L1311.5 473.5L1304 470.5L1299 478.5L1286.5 473L1276.5 464L1268 461L1260 457L1243 442.5L1227 426L1212.5 419L1197 418.5L1176 415L1155.5 404L1165 397L1167.5 393L1165 388.5L1171 375L1173 367.5L1172 358.5L1164 350L1143 359L1136.5 354.5L1145 324L1144 316L1141 309L1136.5 304L1172 298L1193.5 303.5L1216 305.5L1227 300.5L1247 297.5L1254.5 293.5L1274 291.5L1294 293L1303 290L1311 284.5L1317.5 274.5L1323 263.5L1327 253L1339 250.5L1345 253.5L1354 260.5L1358 262.5L1445.5 259.5L1476 258.5L1486.5 253.5L1493 242.5L1493.5 232.5L1495 223.5L1509.5 216L1535 212L1544 213L1557 216.5L1601.5 218.5L1618.5 213.5L1651 193.5L1682.5 181L1695.5 172L1709 189.5L1726.5 202.5L1729 215.5L1726 229L1729.5 238L1737.5 240.5Z" fill="#101828" stroke="white" stroke-width="6" stroke-linecap="round" stroke-linejoin="round"/>
<path d="M1390.64 407H1384.72V389.545H1390.76C1392.49 389.545 1393.98 389.895 1395.22 390.594C1396.47 391.287 1397.43 392.284 1398.1 393.585C1398.77 394.886 1399.11 396.443 1399.11 398.256C1399.11 400.074 1398.77 401.636 1398.09 402.943C1397.42 404.25 1396.45 405.253 1395.19 405.952C1393.93 406.651 1392.41 407 1390.64 407ZM1387.88 404.264H1390.48C1391.7 404.264 1392.71 404.043 1393.53 403.599C1394.34 403.151 1394.95 402.483 1395.36 401.597C1395.77 400.705 1395.97 399.591 1395.97 398.256C1395.97 396.92 1395.77 395.812 1395.36 394.932C1394.95 394.045 1394.34 393.384 1393.54 392.946C1392.75 392.503 1391.76 392.281 1390.58 392.281H1387.88V404.264ZM1401.98 407V393.909H1405.06V407H1401.98ZM1403.53 392.051C1403.04 392.051 1402.62 391.889 1402.27 391.565C1401.91 391.236 1401.74 390.841 1401.74 390.381C1401.74 389.915 1401.91 389.52 1402.27 389.196C1402.62 388.866 1403.04 388.702 1403.53 388.702C1404.02 388.702 1404.44 388.866 1404.79 389.196C1405.14 389.52 1405.32 389.915 1405.32 390.381C1405.32 390.841 1405.14 391.236 1404.79 391.565C1404.44 391.889 1404.02 392.051 1403.53 392.051ZM1410.15 411.909C1409.73 411.909 1409.34 411.875 1408.98 411.807C1408.63 411.744 1408.35 411.67 1408.14 411.585L1408.86 409.182C1409.3 409.313 1409.71 409.375 1410.06 409.369C1410.41 409.364 1410.72 409.253 1410.99 409.037C1411.26 408.827 1411.49 408.474 1411.68 407.98L1411.94 407.273L1407.19 393.909H1410.47L1413.48 403.795H1413.62L1416.65 393.909H1419.93L1414.69 408.585C1414.44 409.278 1414.12 409.872 1413.71 410.366C1413.31 410.866 1412.82 411.247 1412.23 411.509C1411.65 411.776 1410.96 411.909 1410.15 411.909ZM1425.45 407.264C1424.62 407.264 1423.88 407.116 1423.21 406.821C1422.55 406.52 1422.03 406.077 1421.64 405.491C1421.26 404.906 1421.07 404.185 1421.07 403.327C1421.07 402.588 1421.21 401.977 1421.48 401.494C1421.75 401.011 1422.13 400.625 1422.6 400.335C1423.07 400.045 1423.6 399.827 1424.19 399.679C1424.79 399.526 1425.41 399.415 1426.04 399.347C1426.81 399.267 1427.43 399.196 1427.91 399.134C1428.39 399.065 1428.73 398.963 1428.95 398.827C1429.17 398.685 1429.28 398.466 1429.28 398.17V398.119C1429.28 397.477 1429.09 396.98 1428.71 396.628C1428.33 396.276 1427.78 396.099 1427.06 396.099C1426.31 396.099 1425.71 396.264 1425.27 396.594C1424.83 396.923 1424.53 397.312 1424.38 397.761L1421.5 397.352C1421.73 396.557 1422.1 395.892 1422.62 395.358C1423.15 394.818 1423.79 394.415 1424.54 394.148C1425.3 393.875 1426.13 393.739 1427.05 393.739C1427.68 393.739 1428.31 393.812 1428.93 393.96C1429.56 394.108 1430.13 394.352 1430.64 394.693C1431.16 395.028 1431.58 395.486 1431.89 396.065C1432.21 396.645 1432.37 397.369 1432.37 398.239V407H1429.4V405.202H1429.3C1429.11 405.565 1428.85 405.906 1428.5 406.224C1428.17 406.537 1427.75 406.79 1427.24 406.983C1426.73 407.17 1426.14 407.264 1425.45 407.264ZM1426.25 404.997C1426.87 404.997 1427.41 404.875 1427.87 404.631C1428.32 404.381 1428.67 404.051 1428.91 403.642C1429.16 403.233 1429.29 402.787 1429.29 402.304V400.761C1429.19 400.841 1429.03 400.915 1428.79 400.983C1428.57 401.051 1428.31 401.111 1428.03 401.162C1427.74 401.213 1427.46 401.259 1427.18 401.298C1426.91 401.338 1426.66 401.372 1426.46 401.401C1426 401.463 1425.59 401.565 1425.22 401.707C1424.86 401.849 1424.57 402.048 1424.36 402.304C1424.15 402.554 1424.05 402.878 1424.05 403.276C1424.05 403.844 1424.25 404.273 1424.67 404.562C1425.08 404.852 1425.61 404.997 1426.25 404.997ZM1435.47 407V393.909H1438.46V396.091H1438.6C1438.83 395.335 1439.24 394.753 1439.82 394.344C1440.41 393.929 1441.08 393.722 1441.83 393.722C1442 393.722 1442.19 393.73 1442.4 393.747C1442.61 393.759 1442.79 393.778 1442.93 393.807V396.645C1442.8 396.599 1442.6 396.56 1442.31 396.526C1442.03 396.486 1441.76 396.466 1441.5 396.466C1440.94 396.466 1440.43 396.588 1439.99 396.832C1439.54 397.071 1439.19 397.403 1438.94 397.83C1438.68 398.256 1438.55 398.747 1438.55 399.304V407H1435.47ZM1445.12 407V389.545H1448.21V396.074H1448.33C1448.49 395.756 1448.72 395.418 1449.01 395.06C1449.3 394.696 1449.69 394.386 1450.18 394.131C1450.68 393.869 1451.31 393.739 1452.07 393.739C1453.09 393.739 1454 393.997 1454.81 394.514C1455.63 395.026 1456.28 395.784 1456.75 396.79C1457.24 397.79 1457.48 399.017 1457.48 400.472C1457.48 401.909 1457.24 403.131 1456.77 404.136C1456.3 405.142 1455.66 405.909 1454.84 406.438C1454.03 406.966 1453.11 407.23 1452.08 407.23C1451.33 407.23 1450.71 407.105 1450.22 406.855C1449.72 406.605 1449.32 406.304 1449.02 405.952C1448.73 405.594 1448.5 405.256 1448.33 404.938H1448.15V407H1445.12ZM1448.15 400.455C1448.15 401.301 1448.26 402.043 1448.5 402.679C1448.75 403.315 1449.1 403.812 1449.55 404.17C1450.01 404.523 1450.57 404.699 1451.22 404.699C1451.9 404.699 1452.48 404.517 1452.94 404.153C1453.4 403.784 1453.74 403.281 1453.98 402.645C1454.21 402.003 1454.33 401.273 1454.33 400.455C1454.33 399.642 1454.22 398.92 1453.98 398.29C1453.75 397.659 1453.4 397.165 1452.94 396.807C1452.48 396.449 1451.91 396.27 1451.22 396.27C1450.56 396.27 1450 396.443 1449.54 396.79C1449.08 397.136 1448.73 397.622 1448.5 398.247C1448.26 398.872 1448.15 399.608 1448.15 400.455ZM1463.87 407.264C1463.04 407.264 1462.29 407.116 1461.63 406.821C1460.97 406.52 1460.44 406.077 1460.06 405.491C1459.68 404.906 1459.49 404.185 1459.49 403.327C1459.49 402.588 1459.62 401.977 1459.9 401.494C1460.17 401.011 1460.54 400.625 1461.01 400.335C1461.48 400.045 1462.02 399.827 1462.61 399.679C1463.2 399.526 1463.82 399.415 1464.46 399.347C1465.22 399.267 1465.85 399.196 1466.32 399.134C1466.8 399.065 1467.15 398.963 1467.36 398.827C1467.58 398.685 1467.69 398.466 1467.69 398.17V398.119C1467.69 397.477 1467.5 396.98 1467.12 396.628C1466.74 396.276 1466.19 396.099 1465.48 396.099C1464.72 396.099 1464.12 396.264 1463.68 396.594C1463.24 396.923 1462.95 397.312 1462.79 397.761L1459.91 397.352C1460.14 396.557 1460.52 395.892 1461.04 395.358C1461.56 394.818 1462.2 394.415 1462.96 394.148C1463.71 393.875 1464.55 393.739 1465.46 393.739C1466.09 393.739 1466.72 393.812 1467.35 393.96C1467.97 394.108 1468.54 394.352 1469.06 394.693C1469.58 395.028 1469.99 395.486 1470.3 396.065C1470.62 396.645 1470.78 397.369 1470.78 398.239V407H1467.81V405.202H1467.71C1467.52 405.565 1467.26 405.906 1466.92 406.224C1466.58 406.537 1466.16 406.79 1465.65 406.983C1465.14 407.17 1464.55 407.264 1463.87 407.264ZM1464.67 404.997C1465.29 404.997 1465.83 404.875 1466.28 404.631C1466.73 404.381 1467.08 404.051 1467.33 403.642C1467.58 403.233 1467.7 402.787 1467.7 402.304V400.761C1467.61 400.841 1467.44 400.915 1467.21 400.983C1466.98 401.051 1466.73 401.111 1466.44 401.162C1466.16 401.213 1465.88 401.259 1465.6 401.298C1465.32 401.338 1465.08 401.372 1464.87 401.401C1464.41 401.463 1464 401.565 1463.64 401.707C1463.27 401.849 1462.99 402.048 1462.78 402.304C1462.57 402.554 1462.46 402.878 1462.46 403.276C1462.46 403.844 1462.67 404.273 1463.08 404.562C1463.5 404.852 1464.03 404.997 1464.67 404.997ZM1476.69 402.892L1476.69 399.168H1477.18L1481.88 393.909H1485.49L1479.7 400.352H1479.06L1476.69 402.892ZM1473.88 407V389.545H1476.97V407H1473.88ZM1482.1 407L1477.84 401.043L1479.92 398.869L1485.79 407H1482.1ZM1487.55 407V393.909H1490.63V407H1487.55ZM1493.8 407V393.909H1496.8V396.091H1496.93C1497.17 395.335 1497.58 394.753 1498.16 394.344C1498.74 393.929 1499.41 393.722 1500.16 393.722C1500.33 393.722 1500.52 393.73 1500.73 393.747C1500.95 393.759 1501.13 393.778 1501.27 393.807V396.645C1501.14 396.599 1500.93 396.56 1500.65 396.526C1500.37 396.486 1500.1 396.466 1499.84 396.466C1499.28 396.466 1498.77 396.588 1498.32 396.832C1497.88 397.071 1497.53 397.403 1497.27 397.83C1497.02 398.256 1496.89 398.747 1496.89 399.304V407H1493.8Z" fill="#D0D5DD"/>
<path d="M856 601L851.5 602L847.5 601.5H843L839 604.5L827.5 619L818.5 628L816 632.5L814 640.5L808.5 645L807 647.5L804 659.5L808 662L811 665.5L813 670.5V677.5H811.5L809.5 673.5L807 673L805 675.5L804 681L805 686L807 690.5L811.5 697.5L813 701.5L813.5 704.5L813 712.5L811.5 722V726L815 729.5L818 727.5L820.5 729L823 732L825.5 733.5L827.5 733L834 730L837 729.5L840 731L839.5 734.5L836.5 742.5V747.5L837 750.5L841 755L848 761.5L849 764V772L850.5 778.5L855 783.5L856.5 786.5L853.5 787.5L851 789.5L850.5 793.5L851 798L852.5 801L848 804L840.5 806L798.5 825.5L755.5 834.5L739.5 841.5L721 853.5L699 834L675 820.5L656 810L648 815.5L637 802L615.5 780L595.5 766.5L578 763L570 744.5L560.5 739.5L552.5 746L549.5 768L532 780L510.5 790L496.5 803.5L494 800.5L490 800L486.5 797.5L484.5 790.5L480 786.5L459 777L442 760L448.5 748L458 739L476.5 715.5L490.5 687.5L500.5 672L512.5 658.5L544 644L556 627L569 635L576.5 664.5L596.5 671L620 646L634.5 638.5L667 633L702 620.5L718.5 618.5L735 619L746 611.5L749.5 596.5L747.5 587L748 577L776.5 571L805 571.5L835.5 583L856 601Z" fill="#B42318" stroke="white" stroke-width="6" stroke-linecap="round" stroke-linejoin="round"/>
<path d="M642.415 721.119C642.273 720.659 642.077 720.247 641.827 719.884C641.582 719.514 641.287 719.199 640.94 718.938C640.599 718.676 640.207 718.48 639.764 718.349C639.321 718.213 638.838 718.145 638.315 718.145C637.378 718.145 636.543 718.381 635.81 718.852C635.077 719.324 634.5 720.017 634.08 720.932C633.665 721.841 633.457 722.949 633.457 724.256C633.457 725.574 633.665 726.69 634.08 727.605C634.494 728.52 635.071 729.216 635.81 729.693C636.548 730.165 637.406 730.401 638.384 730.401C639.27 730.401 640.037 730.23 640.685 729.889C641.338 729.548 641.841 729.065 642.193 728.44C642.545 727.81 642.722 727.071 642.722 726.224L643.438 726.335H638.699V723.864H645.781V725.96C645.781 727.455 645.463 728.747 644.827 729.838C644.19 730.929 643.315 731.77 642.202 732.361C641.088 732.946 639.81 733.239 638.366 733.239C636.759 733.239 635.347 732.878 634.131 732.156C632.92 731.429 631.974 730.398 631.293 729.062C630.616 727.722 630.278 726.131 630.278 724.29C630.278 722.881 630.477 721.622 630.875 720.514C631.278 719.406 631.841 718.466 632.562 717.693C633.284 716.915 634.131 716.324 635.102 715.92C636.074 715.511 637.131 715.307 638.273 715.307C639.239 715.307 640.139 715.449 640.974 715.733C641.81 716.011 642.551 716.409 643.199 716.926C643.852 717.443 644.389 718.057 644.81 718.767C645.23 719.477 645.506 720.261 645.636 721.119H642.415ZM652.469 733.264C651.64 733.264 650.893 733.116 650.228 732.821C649.569 732.52 649.046 732.077 648.66 731.491C648.279 730.906 648.089 730.185 648.089 729.327C648.089 728.588 648.225 727.977 648.498 727.494C648.771 727.011 649.143 726.625 649.614 726.335C650.086 726.045 650.617 725.827 651.208 725.679C651.805 725.526 652.421 725.415 653.058 725.347C653.825 725.267 654.447 725.196 654.924 725.134C655.401 725.065 655.748 724.963 655.964 724.827C656.185 724.685 656.296 724.466 656.296 724.17V724.119C656.296 723.477 656.106 722.98 655.725 722.628C655.344 722.276 654.796 722.099 654.08 722.099C653.325 722.099 652.725 722.264 652.282 722.594C651.844 722.923 651.549 723.312 651.396 723.761L648.515 723.352C648.742 722.557 649.117 721.892 649.64 721.358C650.163 720.818 650.802 720.415 651.558 720.148C652.313 719.875 653.148 719.739 654.063 719.739C654.694 719.739 655.322 719.812 655.947 719.96C656.572 720.108 657.143 720.352 657.66 720.693C658.177 721.028 658.592 721.486 658.904 722.065C659.222 722.645 659.381 723.369 659.381 724.239V733H656.415V731.202H656.313C656.126 731.565 655.862 731.906 655.521 732.224C655.185 732.537 654.762 732.79 654.251 732.983C653.745 733.17 653.151 733.264 652.469 733.264ZM653.271 730.997C653.89 730.997 654.427 730.875 654.881 730.631C655.336 730.381 655.685 730.051 655.93 729.642C656.18 729.233 656.305 728.787 656.305 728.304V726.761C656.208 726.841 656.043 726.915 655.81 726.983C655.583 727.051 655.327 727.111 655.043 727.162C654.759 727.213 654.478 727.259 654.2 727.298C653.921 727.338 653.68 727.372 653.475 727.401C653.015 727.463 652.603 727.565 652.239 727.707C651.876 727.849 651.589 728.048 651.379 728.304C651.168 728.554 651.063 728.878 651.063 729.276C651.063 729.844 651.271 730.273 651.685 730.562C652.1 730.852 652.629 730.997 653.271 730.997ZM662.313 733V731.04L669.063 722.577V722.466H662.535V719.909H672.839V722.014L666.413 730.332V730.443H673.06V733H662.313ZM675.96 733V719.909H679.045V733H675.96ZM677.511 718.051C677.023 718.051 676.602 717.889 676.25 717.565C675.898 717.236 675.722 716.841 675.722 716.381C675.722 715.915 675.898 715.52 676.25 715.196C676.602 714.866 677.023 714.702 677.511 714.702C678.006 714.702 678.426 714.866 678.773 715.196C679.125 715.52 679.301 715.915 679.301 716.381C679.301 716.841 679.125 717.236 678.773 717.565C678.426 717.889 678.006 718.051 677.511 718.051ZM685.985 733.264C685.156 733.264 684.408 733.116 683.744 732.821C683.085 732.52 682.562 732.077 682.175 731.491C681.795 730.906 681.604 730.185 681.604 729.327C681.604 728.588 681.741 727.977 682.013 727.494C682.286 727.011 682.658 726.625 683.13 726.335C683.602 726.045 684.133 725.827 684.724 725.679C685.32 725.526 685.937 725.415 686.573 725.347C687.34 725.267 687.962 725.196 688.44 725.134C688.917 725.065 689.263 724.963 689.479 724.827C689.701 724.685 689.812 724.466 689.812 724.17V724.119C689.812 723.477 689.621 722.98 689.241 722.628C688.86 722.276 688.312 722.099 687.596 722.099C686.84 722.099 686.241 722.264 685.798 722.594C685.36 722.923 685.065 723.312 684.911 723.761L682.031 723.352C682.258 722.557 682.633 721.892 683.156 721.358C683.678 720.818 684.317 720.415 685.073 720.148C685.829 719.875 686.664 719.739 687.579 719.739C688.21 719.739 688.837 719.812 689.462 719.96C690.087 720.108 690.658 720.352 691.175 720.693C691.692 721.028 692.107 721.486 692.42 722.065C692.738 722.645 692.897 723.369 692.897 724.239V733H689.931V731.202H689.829C689.641 731.565 689.377 731.906 689.036 732.224C688.701 732.537 688.278 732.79 687.766 732.983C687.261 733.17 686.667 733.264 685.985 733.264ZM686.786 730.997C687.406 730.997 687.942 730.875 688.397 730.631C688.852 730.381 689.201 730.051 689.445 729.642C689.695 729.233 689.82 728.787 689.82 728.304V726.761C689.724 726.841 689.559 726.915 689.326 726.983C689.099 727.051 688.843 727.111 688.559 727.162C688.275 727.213 687.994 727.259 687.715 727.298C687.437 727.338 687.195 727.372 686.991 727.401C686.531 727.463 686.119 727.565 685.755 727.707C685.391 727.849 685.104 728.048 684.894 728.304C684.684 728.554 684.579 728.878 684.579 729.276C684.579 729.844 684.786 730.273 685.201 730.562C685.616 730.852 686.144 730.997 686.786 730.997ZM699.085 725.33V733H695.999V719.909H698.948V722.134H699.102C699.403 721.401 699.883 720.818 700.542 720.386C701.207 719.955 702.028 719.739 703.005 719.739C703.908 719.739 704.695 719.932 705.366 720.318C706.042 720.705 706.565 721.264 706.934 721.997C707.309 722.73 707.494 723.619 707.488 724.665V733H704.403V725.142C704.403 724.267 704.175 723.582 703.721 723.088C703.272 722.594 702.65 722.347 701.854 722.347C701.315 722.347 700.835 722.466 700.414 722.705C699.999 722.937 699.673 723.276 699.434 723.719C699.201 724.162 699.085 724.699 699.085 725.33ZM717.161 719.909V722.295H709.636V719.909H717.161ZM711.494 716.773H714.579V729.062C714.579 729.477 714.641 729.795 714.766 730.017C714.897 730.233 715.067 730.381 715.278 730.46C715.488 730.54 715.721 730.58 715.977 730.58C716.17 730.58 716.346 730.565 716.505 730.537C716.67 730.509 716.795 730.483 716.88 730.46L717.4 732.872C717.235 732.929 716.999 732.991 716.692 733.06C716.391 733.128 716.022 733.168 715.585 733.179C714.812 733.202 714.116 733.085 713.496 732.83C712.877 732.568 712.386 732.165 712.022 731.619C711.664 731.074 711.488 730.392 711.494 729.574V716.773ZM725.396 733.256C724.084 733.256 722.95 732.983 721.996 732.438C721.047 731.886 720.317 731.108 719.805 730.102C719.294 729.091 719.038 727.901 719.038 726.531C719.038 725.185 719.294 724.003 719.805 722.986C720.322 721.963 721.044 721.168 721.97 720.599C722.896 720.026 723.984 719.739 725.234 719.739C726.041 719.739 726.803 719.869 727.518 720.131C728.24 720.386 728.876 720.784 729.428 721.324C729.984 721.864 730.422 722.551 730.74 723.386C731.058 724.216 731.217 725.205 731.217 726.352V727.298H720.487V725.219H728.26C728.254 724.628 728.126 724.102 727.876 723.642C727.626 723.176 727.277 722.81 726.828 722.543C726.385 722.276 725.868 722.142 725.277 722.142C724.646 722.142 724.092 722.295 723.615 722.602C723.138 722.903 722.766 723.301 722.499 723.795C722.237 724.284 722.104 724.821 722.098 725.406V727.222C722.098 727.983 722.237 728.636 722.516 729.182C722.794 729.722 723.183 730.136 723.683 730.426C724.183 730.71 724.768 730.852 725.439 730.852C725.888 730.852 726.294 730.79 726.658 730.665C727.021 730.534 727.337 730.344 727.604 730.094C727.871 729.844 728.072 729.534 728.209 729.165L731.089 729.489C730.908 730.25 730.561 730.915 730.05 731.483C729.544 732.045 728.896 732.483 728.107 732.795C727.317 733.102 726.413 733.256 725.396 733.256ZM733.827 737.909V719.909H736.862V722.074H737.04C737.2 721.756 737.424 721.418 737.714 721.06C738.004 720.696 738.396 720.386 738.89 720.131C739.384 719.869 740.015 719.739 740.782 719.739C741.793 719.739 742.705 719.997 743.518 720.514C744.336 721.026 744.984 721.784 745.461 722.79C745.944 723.79 746.185 725.017 746.185 726.472C746.185 727.909 745.95 729.131 745.478 730.136C745.006 731.142 744.364 731.909 743.552 732.438C742.739 732.966 741.819 733.23 740.79 733.23C740.04 733.23 739.418 733.105 738.924 732.855C738.43 732.605 738.032 732.304 737.731 731.952C737.435 731.594 737.205 731.256 737.04 730.938H736.913V737.909H733.827ZM736.853 726.455C736.853 727.301 736.972 728.043 737.211 728.679C737.455 729.315 737.805 729.812 738.259 730.17C738.719 730.523 739.276 730.699 739.93 730.699C740.612 730.699 741.183 730.517 741.643 730.153C742.103 729.784 742.45 729.281 742.683 728.645C742.921 728.003 743.04 727.273 743.04 726.455C743.04 725.642 742.924 724.92 742.691 724.29C742.458 723.659 742.112 723.165 741.651 722.807C741.191 722.449 740.617 722.27 739.93 722.27C739.271 722.27 738.711 722.443 738.251 722.79C737.79 723.136 737.441 723.622 737.202 724.247C736.969 724.872 736.853 725.608 736.853 726.455Z" fill="white"/>
<path d="M1367 624L1370.5 663L1378 671L1386.5 678L1399.5 691.5L1403 698.5L1400 724.5L1424 766.5L1435 772.5L1416.5 785L1407 789.5L1397 791.5L1387.5 794.5L1361.5 810L1306 831.5L1169 857.5L1155 858L1114.5 844.5L1101 845.5L1095.5 847.5L1053 849.5L1034.5 847L1019 838.5L983.5 801.5L971 794.5L921.5 779.5L904 777L895 778L877.5 785L852.5 801L851 798L850.5 793.5L851 789.5L853.5 787.5L856.5 786.5L855 783.5L850.5 778.5L849 772V764L848 761.5L841 755L837 750.5L836.5 747.5V742.5L839.5 734.5L840 731L837 729.5L834 730L827.5 733L825.5 733.5L823 732L820.5 729L818 727.5L815 729.5L811.5 726V722L813 712.5L813.5 704.5L813 701.5L811.5 697.5L807 690.5L805 686L804 681L805 675.5L807 673L809.5 673.5L811.5 677.5H813V670.5L811 665.5L808 662L804 659.5L807 647.5L808.5 645L814 640.5L816 632.5L818.5 628L827.5 619L839 604.5L843 601.5H847.5L851.5 602L856 601L860 604H863L870.5 598.5L874 602.5L878.5 605L890 608L891.5 608.5V611.5L894 612L897 608.5L897.5 600.5L899.5 598.5L911 600L915 598.5L916.5 591H919.5L934.5 585L942.5 588.5L974.5 583L980 579.5L995.5 563L999 557L1001.5 556L1014 542.5L1072 533.5L1059 523.5L1054.5 518.5L1059.5 515L1063.5 519L1067 519.5L1071 517.5L1074 514L1075.5 512.5L1080 515.5H1082.5L1086.5 513L1079.5 505.5L1077.5 504L1081 500L1086 499L1092 498.5L1097 497L1094 492.5L1094.5 484L1091.5 481.5L1088.5 482L1081 487L1077.5 488L1079.5 483L1082.5 479L1086 476L1090 474.5L1092 475L1099 477L1100.5 474.5L1101 471.5L1099 467.5L1102 463L1103.5 458.5V454.5L1100.5 449.5L1113.5 445.5L1117 443L1119.5 438L1121 427L1122 422.5L1125 418.5L1129.5 416L1145.5 411.5L1155.5 404L1176 415L1197 418.5L1212.5 419L1227 426L1243 442.5L1260 457L1268 461L1276.5 464L1286.5 473L1299 478.5L1304 470.5L1311.5 473.5L1318 480L1323 482.5L1327.5 484L1331.5 492L1329.5 527.5L1333.5 552.5L1336 562L1337 567L1346 593.5L1355 610.5L1367 624Z" fill="#101828" stroke="white" stroke-width="6" stroke-linecap="round" stroke-linejoin="round"/>
<path d="M1066.21 670.344C1066.13 669.599 1065.79 669.02 1065.2 668.605C1064.62 668.19 1063.86 667.983 1062.92 667.983C1062.26 667.983 1061.69 668.082 1061.22 668.281C1060.75 668.48 1060.39 668.75 1060.14 669.091C1059.89 669.432 1059.76 669.821 1059.76 670.259C1059.76 670.622 1059.84 670.937 1060 671.205C1060.17 671.472 1060.4 671.699 1060.69 671.886C1060.98 672.068 1061.3 672.222 1061.66 672.347C1062.01 672.472 1062.36 672.577 1062.72 672.662L1064.36 673.071C1065.02 673.224 1065.65 673.432 1066.26 673.693C1066.87 673.955 1067.42 674.284 1067.9 674.682C1068.39 675.08 1068.78 675.56 1069.06 676.122C1069.35 676.685 1069.49 677.344 1069.49 678.099C1069.49 679.122 1069.23 680.023 1068.7 680.801C1068.18 681.574 1067.43 682.179 1066.44 682.616C1065.45 683.048 1064.26 683.264 1062.87 683.264C1061.51 683.264 1060.33 683.054 1059.33 682.634C1058.34 682.213 1057.56 681.599 1056.99 680.793C1056.44 679.986 1056.14 679.003 1056.09 677.844H1059.2C1059.25 678.452 1059.43 678.957 1059.76 679.361C1060.09 679.764 1060.52 680.065 1061.05 680.264C1061.59 680.463 1062.18 680.562 1062.84 680.562C1063.53 680.562 1064.13 680.46 1064.65 680.256C1065.17 680.045 1065.58 679.756 1065.88 679.386C1066.17 679.011 1066.32 678.574 1066.33 678.074C1066.32 677.619 1066.19 677.244 1065.93 676.949C1065.66 676.648 1065.3 676.398 1064.83 676.199C1064.36 675.994 1063.82 675.812 1063.19 675.653L1061.2 675.142C1059.77 674.773 1058.63 674.213 1057.8 673.463C1056.97 672.707 1056.55 671.705 1056.55 670.455C1056.55 669.426 1056.83 668.526 1057.39 667.753C1057.95 666.98 1058.71 666.381 1059.68 665.955C1060.64 665.523 1061.74 665.307 1062.96 665.307C1064.2 665.307 1065.28 665.523 1066.22 665.955C1067.15 666.381 1067.89 666.974 1068.42 667.736C1068.96 668.491 1069.23 669.361 1069.25 670.344H1066.21ZM1061.96 682.932H1063.63L1063.5 683.656C1064.03 683.736 1064.48 683.94 1064.85 684.27C1065.23 684.605 1065.41 685.085 1065.41 685.71C1065.42 686.517 1065.06 687.165 1064.33 687.653C1063.61 688.142 1062.57 688.386 1061.22 688.386L1061.19 686.869C1061.84 686.869 1062.36 686.781 1062.75 686.605C1063.13 686.435 1063.33 686.162 1063.34 685.787C1063.35 685.423 1063.21 685.156 1062.93 684.986C1062.65 684.821 1062.2 684.707 1061.6 684.645L1061.96 682.932ZM1075.94 683.264C1075.11 683.264 1074.36 683.116 1073.7 682.821C1073.04 682.52 1072.51 682.077 1072.13 681.491C1071.75 680.906 1071.56 680.185 1071.56 679.327C1071.56 678.588 1071.69 677.977 1071.97 677.494C1072.24 677.011 1072.61 676.625 1073.08 676.335C1073.55 676.045 1074.09 675.827 1074.68 675.679C1075.27 675.526 1075.89 675.415 1076.53 675.347C1077.29 675.267 1077.92 675.196 1078.39 675.134C1078.87 675.065 1079.22 674.963 1079.43 674.827C1079.65 674.685 1079.76 674.466 1079.76 674.17V674.119C1079.76 673.477 1079.57 672.98 1079.19 672.628C1078.81 672.276 1078.26 672.099 1077.55 672.099C1076.79 672.099 1076.19 672.264 1075.75 672.594C1075.31 672.923 1075.02 673.312 1074.86 673.761L1071.98 673.352C1072.21 672.557 1072.59 671.892 1073.11 671.358C1073.63 670.818 1074.27 670.415 1075.03 670.148C1075.78 669.875 1076.62 669.739 1077.53 669.739C1078.16 669.739 1078.79 669.812 1079.42 669.96C1080.04 670.108 1080.61 670.352 1081.13 670.693C1081.65 671.028 1082.06 671.486 1082.37 672.065C1082.69 672.645 1082.85 673.369 1082.85 674.239V683H1079.88V681.202H1079.78C1079.59 681.565 1079.33 681.906 1078.99 682.224C1078.65 682.537 1078.23 682.79 1077.72 682.983C1077.21 683.17 1076.62 683.264 1075.94 683.264ZM1076.74 680.997C1077.36 680.997 1077.9 680.875 1078.35 680.631C1078.8 680.381 1079.15 680.051 1079.4 679.642C1079.65 679.233 1079.77 678.787 1079.77 678.304V676.761C1079.68 676.841 1079.51 676.915 1079.28 676.983C1079.05 677.051 1078.8 677.111 1078.51 677.162C1078.23 677.213 1077.95 677.259 1077.67 677.298C1077.39 677.338 1077.15 677.372 1076.94 677.401C1076.48 677.463 1076.07 677.565 1075.71 677.707C1075.34 677.849 1075.06 678.048 1074.85 678.304C1074.64 678.554 1074.53 678.878 1074.53 679.276C1074.53 679.844 1074.74 680.273 1075.15 680.562C1075.57 680.852 1076.1 680.997 1076.74 680.997ZM1089.04 675.33V683H1085.95V669.909H1088.9V672.134H1089.05C1089.36 671.401 1089.84 670.818 1090.5 670.386C1091.16 669.955 1091.98 669.739 1092.96 669.739C1093.86 669.739 1094.65 669.932 1095.32 670.318C1096 670.705 1096.52 671.264 1096.89 671.997C1097.26 672.73 1097.45 673.619 1097.44 674.665V683H1094.36V675.142C1094.36 674.267 1094.13 673.582 1093.67 673.088C1093.23 672.594 1092.6 672.347 1091.81 672.347C1091.27 672.347 1090.79 672.466 1090.37 672.705C1089.95 672.937 1089.63 673.276 1089.39 673.719C1089.15 674.162 1089.04 674.699 1089.04 675.33ZM1103.66 665.545V683H1100.58V665.545H1103.66ZM1106.84 683V669.909H1109.92V683H1106.84ZM1121.44 677.494V669.909H1124.52V683H1121.53V680.673H1121.39C1121.1 681.406 1120.61 682.006 1119.94 682.472C1119.27 682.937 1118.44 683.17 1117.46 683.17C1116.6 683.17 1115.84 682.98 1115.18 682.599C1114.53 682.213 1114.02 681.653 1113.65 680.92C1113.28 680.182 1113.09 679.29 1113.09 678.244V669.909H1116.18V677.767C1116.18 678.597 1116.41 679.256 1116.86 679.744C1117.31 680.233 1117.91 680.477 1118.65 680.477C1119.1 680.477 1119.54 680.366 1119.97 680.145C1120.4 679.923 1120.75 679.594 1121.02 679.156C1121.3 678.713 1121.44 678.159 1121.44 677.494ZM1127.69 683V669.909H1130.69V672.091H1130.82C1131.06 671.335 1131.47 670.753 1132.05 670.344C1132.63 669.929 1133.3 669.722 1134.05 669.722C1134.22 669.722 1134.41 669.73 1134.62 669.747C1134.84 669.759 1135.02 669.778 1135.16 669.807V672.645C1135.03 672.599 1134.82 672.56 1134.54 672.526C1134.26 672.486 1133.99 672.466 1133.73 672.466C1133.17 672.466 1132.66 672.588 1132.21 672.832C1131.77 673.071 1131.42 673.403 1131.16 673.83C1130.91 674.256 1130.78 674.747 1130.78 675.304V683H1127.69ZM1144.54 669.909V672.295H1136.81V669.909H1144.54ZM1138.74 683V668.673C1138.74 667.793 1138.92 667.06 1139.29 666.474C1139.65 665.889 1140.15 665.452 1140.77 665.162C1141.39 664.872 1142.08 664.727 1142.83 664.727C1143.37 664.727 1143.84 664.77 1144.25 664.855C1144.67 664.94 1144.98 665.017 1145.17 665.085L1144.56 667.472C1144.43 667.432 1144.27 667.392 1144.07 667.352C1143.87 667.307 1143.65 667.284 1143.4 667.284C1142.83 667.284 1142.42 667.423 1142.18 667.702C1141.95 667.974 1141.83 668.366 1141.83 668.878V683H1138.74ZM1150.28 683.264C1149.45 683.264 1148.71 683.116 1148.04 682.821C1147.38 682.52 1146.86 682.077 1146.47 681.491C1146.09 680.906 1145.9 680.185 1145.9 679.327C1145.9 678.588 1146.04 677.977 1146.31 677.494C1146.58 677.011 1146.96 676.625 1147.43 676.335C1147.9 676.045 1148.43 675.827 1149.02 675.679C1149.62 675.526 1150.23 675.415 1150.87 675.347C1151.64 675.267 1152.26 675.196 1152.74 675.134C1153.21 675.065 1153.56 674.963 1153.78 674.827C1154 674.685 1154.11 674.466 1154.11 674.17V674.119C1154.11 673.477 1153.92 672.98 1153.54 672.628C1153.16 672.276 1152.61 672.099 1151.89 672.099C1151.14 672.099 1150.54 672.264 1150.09 672.594C1149.66 672.923 1149.36 673.312 1149.21 673.761L1146.33 673.352C1146.55 672.557 1146.93 671.892 1147.45 671.358C1147.98 670.818 1148.61 670.415 1149.37 670.148C1150.13 669.875 1150.96 669.739 1151.88 669.739C1152.51 669.739 1153.13 669.812 1153.76 669.96C1154.38 670.108 1154.96 670.352 1155.47 670.693C1155.99 671.028 1156.4 671.486 1156.72 672.065C1157.03 672.645 1157.19 673.369 1157.19 674.239V683H1154.23V681.202H1154.13C1153.94 681.565 1153.67 681.906 1153.33 682.224C1153 682.537 1152.57 682.79 1152.06 682.983C1151.56 683.17 1150.96 683.264 1150.28 683.264ZM1151.08 680.997C1151.7 680.997 1152.24 680.875 1152.69 680.631C1153.15 680.381 1153.5 680.051 1153.74 679.642C1153.99 679.233 1154.12 678.787 1154.12 678.304V676.761C1154.02 676.841 1153.86 676.915 1153.62 676.983C1153.4 677.051 1153.14 677.111 1152.86 677.162C1152.57 677.213 1152.29 677.259 1152.01 677.298C1151.73 677.338 1151.49 677.372 1151.29 677.401C1150.83 677.463 1150.42 677.565 1150.05 677.707C1149.69 677.849 1149.4 678.048 1149.19 678.304C1148.98 678.554 1148.88 678.878 1148.88 679.276C1148.88 679.844 1149.08 680.273 1149.5 680.562C1149.91 680.852 1150.44 680.997 1151.08 680.997Z" fill="#D0D5DD"/>
<path d="M456 311L441.5 325L433.5 345.5L420.5 404.5L412.5 425.5L409.5 447.5L409 457.5L410.5 473L419 493.5L418 507L409.5 515.5L404.5 518L397.5 527.5H377.5L353 529L341 549.5L326 583.5L308.5 626V651.5L316.5 675.5L322 675L339 678.5L346.5 684.5L348.5 689L351.5 707.5L347.5 724L340.5 744L334.5 742L329 740.5L324 744L302.5 768.5V782L307 788.5L296.5 801L293 804L289 805L286.5 807.5L277.5 817.5L273.5 820.5L263.5 823L242 824L232.5 827.5L229.5 830.5L226.5 836.5H224.5L224 833.5L222 832L219.5 837L215.5 841L213 845L214.5 850L218.5 844.5L224.5 846.5L225.5 841L227.5 842.5L229 845.5L230.5 840.5L229 836.5L232.5 834.5L234 836L235 839.5L237 841L240 840L245 837.5L248.5 838.5L233 846L226 851.5L222 859L222.5 862.5L226 860L237.5 846.5L241 844L245 843L235 853L233.5 856L231.5 861.5L230 864.5L228.5 867.5V875.5L226 877L223.5 877.5L220 880.5L217.5 881L209 881.5L205.5 881L197.5 873.5L195 872L191.5 873L189 875.5L188.5 878L191 878.5L202 883L191 880L180 879L177.5 879.5L171.5 883L169 886.5L167 888L161 890L154.5 895.5H151L147 889L140.5 886.5L74.5 846.5L67.5001 844L59 838.5L54 836.5L46.5 836V835.5L60.5001 826L71.5 823L81.0001 814L82 805L81.0001 796L77.5001 777.5V759L85.0001 738.5L75.0001 728.5L59 729L47 720L41.0001 701L40.0001 667.5L27.5001 658L18.0001 639.5L9.50003 620L9 604.5L10.0001 597.5L16.5 587L21.0001 584L24.5 580L28.5001 566L26.5 557L20.0001 540.5L19 524L27 512L40.5001 513L54 517L79.5 513L113.5 478.5L158.5 482L182 488L214 500.5L228 494L222 433.5L319 367L333 347.5L344 324.5L351.5 314.5L362.5 287L374 277.5L394 266L415 260.5L428.5 266.5L438.5 282L445 299.5L456 311Z" fill="#101828" stroke="white" stroke-width="6" stroke-linecap="round" stroke-linejoin="round"/>
<path d="M148.963 649H145.588L151.733 631.545H155.636L161.79 649H158.415L153.753 635.125H153.616L148.963 649ZM149.074 642.156H158.278V644.696H149.074V642.156ZM168.412 649.23C167.384 649.23 166.463 648.966 165.651 648.438C164.838 647.909 164.196 647.142 163.724 646.136C163.253 645.131 163.017 643.909 163.017 642.472C163.017 641.017 163.256 639.79 163.733 638.79C164.216 637.784 164.866 637.026 165.685 636.514C166.503 635.997 167.415 635.739 168.42 635.739C169.188 635.739 169.818 635.869 170.312 636.131C170.807 636.386 171.199 636.696 171.489 637.06C171.778 637.418 172.003 637.756 172.162 638.074H172.29V631.545H175.384V649H172.349V646.938H172.162C172.003 647.256 171.773 647.594 171.472 647.952C171.17 648.304 170.773 648.605 170.278 648.855C169.784 649.105 169.162 649.23 168.412 649.23ZM169.273 646.699C169.926 646.699 170.483 646.523 170.943 646.17C171.403 645.812 171.753 645.315 171.991 644.679C172.23 644.043 172.349 643.301 172.349 642.455C172.349 641.608 172.23 640.872 171.991 640.247C171.759 639.622 171.412 639.136 170.952 638.79C170.497 638.443 169.938 638.27 169.273 638.27C168.585 638.27 168.011 638.449 167.551 638.807C167.091 639.165 166.744 639.659 166.511 640.29C166.278 640.92 166.162 641.642 166.162 642.455C166.162 643.273 166.278 644.003 166.511 644.645C166.75 645.281 167.099 645.784 167.56 646.153C168.026 646.517 168.597 646.699 169.273 646.699ZM182.438 649.264C181.609 649.264 180.862 649.116 180.197 648.821C179.538 648.52 179.015 648.077 178.629 647.491C178.248 646.906 178.058 646.185 178.058 645.327C178.058 644.588 178.194 643.977 178.467 643.494C178.739 643.011 179.112 642.625 179.583 642.335C180.055 642.045 180.586 641.827 181.177 641.679C181.773 641.526 182.39 641.415 183.026 641.347C183.793 641.267 184.415 641.196 184.893 641.134C185.37 641.065 185.717 640.963 185.933 640.827C186.154 640.685 186.265 640.466 186.265 640.17V640.119C186.265 639.477 186.075 638.98 185.694 638.628C185.313 638.276 184.765 638.099 184.049 638.099C183.293 638.099 182.694 638.264 182.251 638.594C181.813 638.923 181.518 639.312 181.364 639.761L178.484 639.352C178.711 638.557 179.086 637.892 179.609 637.358C180.131 636.818 180.771 636.415 181.526 636.148C182.282 635.875 183.117 635.739 184.032 635.739C184.663 635.739 185.29 635.812 185.915 635.96C186.54 636.108 187.112 636.352 187.629 636.693C188.146 637.028 188.56 637.486 188.873 638.065C189.191 638.645 189.35 639.369 189.35 640.239V649H186.384V647.202H186.282C186.094 647.565 185.83 647.906 185.489 648.224C185.154 648.537 184.731 648.79 184.219 648.983C183.714 649.17 183.12 649.264 182.438 649.264ZM183.239 646.997C183.859 646.997 184.396 646.875 184.85 646.631C185.305 646.381 185.654 646.051 185.898 645.642C186.148 645.233 186.273 644.787 186.273 644.304V642.761C186.177 642.841 186.012 642.915 185.779 642.983C185.552 643.051 185.296 643.111 185.012 643.162C184.728 643.213 184.447 643.259 184.168 643.298C183.89 643.338 183.648 643.372 183.444 643.401C182.984 643.463 182.572 643.565 182.208 643.707C181.844 643.849 181.558 644.048 181.347 644.304C181.137 644.554 181.032 644.878 181.032 645.276C181.032 645.844 181.239 646.273 181.654 646.562C182.069 646.852 182.597 646.997 183.239 646.997ZM195.538 641.33V649H192.452V635.909H195.401V638.134H195.555C195.856 637.401 196.336 636.818 196.995 636.386C197.66 635.955 198.481 635.739 199.458 635.739C200.362 635.739 201.148 635.932 201.819 636.318C202.495 636.705 203.018 637.264 203.387 637.997C203.762 638.73 203.947 639.619 203.941 640.665V649H200.856V641.142C200.856 640.267 200.629 639.582 200.174 639.088C199.725 638.594 199.103 638.347 198.308 638.347C197.768 638.347 197.288 638.466 196.867 638.705C196.452 638.937 196.126 639.276 195.887 639.719C195.654 640.162 195.538 640.699 195.538 641.33ZM210.844 649.264C210.015 649.264 209.268 649.116 208.603 648.821C207.944 648.52 207.421 648.077 207.035 647.491C206.654 646.906 206.464 646.185 206.464 645.327C206.464 644.588 206.6 643.977 206.873 643.494C207.146 643.011 207.518 642.625 207.989 642.335C208.461 642.045 208.992 641.827 209.583 641.679C210.18 641.526 210.796 641.415 211.433 641.347C212.2 641.267 212.822 641.196 213.299 641.134C213.776 641.065 214.123 640.963 214.339 640.827C214.56 640.685 214.671 640.466 214.671 640.17V640.119C214.671 639.477 214.481 638.98 214.1 638.628C213.719 638.276 213.171 638.099 212.455 638.099C211.7 638.099 211.1 638.264 210.657 638.594C210.219 638.923 209.924 639.312 209.771 639.761L206.89 639.352C207.117 638.557 207.492 637.892 208.015 637.358C208.538 636.818 209.177 636.415 209.933 636.148C210.688 635.875 211.523 635.739 212.438 635.739C213.069 635.739 213.697 635.812 214.322 635.96C214.947 636.108 215.518 636.352 216.035 636.693C216.552 637.028 216.967 637.486 217.279 638.065C217.597 638.645 217.756 639.369 217.756 640.239V649H214.79V647.202H214.688C214.501 647.565 214.237 647.906 213.896 648.224C213.56 648.537 213.137 648.79 212.626 648.983C212.12 649.17 211.526 649.264 210.844 649.264ZM211.646 646.997C212.265 646.997 212.802 646.875 213.256 646.631C213.711 646.381 214.06 646.051 214.305 645.642C214.555 645.233 214.68 644.787 214.68 644.304V642.761C214.583 642.841 214.418 642.915 214.185 642.983C213.958 643.051 213.702 643.111 213.418 643.162C213.134 643.213 212.853 643.259 212.575 643.298C212.296 643.338 212.055 643.372 211.85 643.401C211.39 643.463 210.978 643.565 210.614 643.707C210.251 643.849 209.964 644.048 209.754 644.304C209.543 644.554 209.438 644.878 209.438 645.276C209.438 645.844 209.646 646.273 210.06 646.562C210.475 646.852 211.004 646.997 211.646 646.997Z" fill="#D0D5DD"/>
<path d="M721 853.5L701.5 866.5H690.5L648 858.5L642.5 859L625.5 863.5L621 862.5L616.5 861.5L612.5 861L607.5 863L603.5 867.5L601.5 870.5L599 871L593.5 868.5L589 864L588 860L590 849.5V843L588 838.5L576 827.5L571 824.5L565.5 822.5L560.5 821.5L544.5 820.5L496.5 803.5L510.5 790L532 780L549.5 768L552.5 746L560.5 739.5L570 744.5L578 763L595.5 766.5L615.5 780L637 802L648 815.5L656 810L675 820.5L699 834L721 853.5Z" fill="#101828" stroke="white" stroke-width="6" stroke-linecap="round" stroke-linejoin="round"/>
<path d="M552.722 805V787.545H555.884V795.565H556.097L562.906 787.545H566.767L560.017 795.378L566.827 805H563.026L557.818 797.517L555.884 799.801V805H552.722ZM569.648 805V791.909H572.733V805H569.648ZM571.199 790.051C570.71 790.051 570.29 789.889 569.938 789.565C569.585 789.236 569.409 788.841 569.409 788.381C569.409 787.915 569.585 787.52 569.938 787.196C570.29 786.866 570.71 786.702 571.199 786.702C571.693 786.702 572.114 786.866 572.46 787.196C572.813 787.52 572.989 787.915 572.989 788.381C572.989 788.841 572.813 789.236 572.46 789.565C572.114 789.889 571.693 790.051 571.199 790.051ZM578.991 787.545V805H575.906V787.545H578.991ZM582.163 805V791.909H585.249V805H582.163ZM583.714 790.051C583.226 790.051 582.805 789.889 582.453 789.565C582.101 789.236 581.925 788.841 581.925 788.381C581.925 787.915 582.101 787.52 582.453 787.196C582.805 786.866 583.226 786.702 583.714 786.702C584.209 786.702 584.629 786.866 584.976 787.196C585.328 787.52 585.504 787.915 585.504 788.381C585.504 788.841 585.328 789.236 584.976 789.565C584.629 789.889 584.209 790.051 583.714 790.051ZM598.768 795.369L595.955 795.676C595.876 795.392 595.737 795.125 595.538 794.875C595.344 794.625 595.083 794.423 594.754 794.27C594.424 794.116 594.021 794.04 593.543 794.04C592.901 794.04 592.362 794.179 591.924 794.457C591.492 794.736 591.279 795.097 591.285 795.54C591.279 795.92 591.418 796.23 591.702 796.469C591.992 796.707 592.469 796.903 593.134 797.057L595.367 797.534C596.606 797.801 597.526 798.224 598.129 798.804C598.737 799.384 599.043 800.142 599.049 801.08C599.043 801.903 598.802 802.631 598.325 803.261C597.853 803.886 597.197 804.375 596.356 804.727C595.515 805.08 594.549 805.256 593.458 805.256C591.856 805.256 590.566 804.92 589.589 804.25C588.612 803.574 588.029 802.634 587.842 801.429L590.85 801.139C590.987 801.73 591.276 802.176 591.719 802.477C592.163 802.778 592.739 802.929 593.45 802.929C594.183 802.929 594.771 802.778 595.214 802.477C595.663 802.176 595.887 801.804 595.887 801.361C595.887 800.986 595.742 800.676 595.452 800.432C595.168 800.187 594.725 800 594.123 799.869L591.89 799.401C590.634 799.139 589.705 798.699 589.103 798.08C588.501 797.455 588.202 796.665 588.208 795.71C588.202 794.903 588.421 794.205 588.864 793.614C589.313 793.017 589.935 792.557 590.731 792.233C591.532 791.903 592.455 791.739 593.501 791.739C595.035 791.739 596.242 792.065 597.123 792.719C598.009 793.372 598.558 794.256 598.768 795.369Z" fill="#D0D5DD"/>
<path d="M397.5 527.5L397 553.5L391.5 563L384 571L382 581L385 590.5L388.5 594L391.5 598L392.5 620L403.5 633L406 632.5L407.5 629.5L410 628L416.5 625.5L421 630.5L429.5 629L439.5 625L468 619.5L478 622L487 628.5L501 641.5L512.5 658.5L500.5 672L490.5 687.5L476.5 715.5L458 739L448.5 748L442 760L429 761.5H416L406 755L397.5 746L385.5 742L373.5 745.5L362.5 745L352 742L340.5 744L347.5 724L351.5 707.5L348.5 689L346.5 684.5L339 678.5L322 675L316.5 675.5L308.5 651.5V626L326 583.5L341 549.5L353 529L377.5 527.5H397.5Z" fill="#101828" stroke="white" stroke-width="6" stroke-linecap="round" stroke-linejoin="round"/>
<path d="M370.318 665.273C370.318 667.153 369.966 668.764 369.261 670.105C368.563 671.44 367.608 672.463 366.398 673.173C365.193 673.884 363.827 674.239 362.298 674.239C360.77 674.239 359.401 673.884 358.19 673.173C356.986 672.457 356.031 671.432 355.327 670.097C354.628 668.756 354.278 667.148 354.278 665.273C354.278 663.392 354.628 661.784 355.327 660.449C356.031 659.108 356.986 658.082 358.19 657.372C359.401 656.662 360.77 656.307 362.298 656.307C363.827 656.307 365.193 656.662 366.398 657.372C367.608 658.082 368.563 659.108 369.261 660.449C369.966 661.784 370.318 663.392 370.318 665.273ZM367.139 665.273C367.139 663.949 366.932 662.832 366.517 661.923C366.108 661.009 365.54 660.318 364.812 659.852C364.085 659.381 363.247 659.145 362.298 659.145C361.349 659.145 360.511 659.381 359.784 659.852C359.057 660.318 358.486 661.009 358.071 661.923C357.662 662.832 357.457 663.949 357.457 665.273C357.457 666.597 357.662 667.716 358.071 668.631C358.486 669.54 359.057 670.23 359.784 670.702C360.511 671.168 361.349 671.401 362.298 671.401C363.247 671.401 364.085 671.168 364.812 670.702C365.54 670.23 366.108 669.54 366.517 668.631C366.932 667.716 367.139 666.597 367.139 665.273ZM383.518 664.369L380.705 664.676C380.626 664.392 380.487 664.125 380.288 663.875C380.094 663.625 379.833 663.423 379.504 663.27C379.174 663.116 378.771 663.04 378.293 663.04C377.651 663.04 377.112 663.179 376.674 663.457C376.242 663.736 376.029 664.097 376.035 664.54C376.029 664.92 376.168 665.23 376.452 665.469C376.742 665.707 377.219 665.903 377.884 666.057L380.117 666.534C381.356 666.801 382.276 667.224 382.879 667.804C383.487 668.384 383.793 669.142 383.799 670.08C383.793 670.903 383.552 671.631 383.075 672.261C382.603 672.886 381.947 673.375 381.106 673.727C380.265 674.08 379.299 674.256 378.208 674.256C376.606 674.256 375.316 673.92 374.339 673.25C373.362 672.574 372.779 671.634 372.592 670.429L375.6 670.139C375.737 670.73 376.026 671.176 376.469 671.477C376.913 671.778 377.489 671.929 378.2 671.929C378.933 671.929 379.521 671.778 379.964 671.477C380.413 671.176 380.637 670.804 380.637 670.361C380.637 669.986 380.492 669.676 380.202 669.432C379.918 669.187 379.475 669 378.873 668.869L376.64 668.401C375.384 668.139 374.455 667.699 373.853 667.08C373.251 666.455 372.952 665.665 372.958 664.71C372.952 663.903 373.171 663.205 373.614 662.614C374.063 662.017 374.685 661.557 375.481 661.233C376.282 660.903 377.205 660.739 378.251 660.739C379.785 660.739 380.992 661.065 381.873 661.719C382.759 662.372 383.308 663.256 383.518 664.369ZM386.343 674V660.909H389.292V663.134H389.445C389.718 662.384 390.17 661.798 390.8 661.378C391.431 660.952 392.184 660.739 393.059 660.739C393.945 660.739 394.692 660.955 395.3 661.386C395.914 661.812 396.346 662.395 396.596 663.134H396.732C397.022 662.406 397.511 661.827 398.198 661.395C398.891 660.957 399.712 660.739 400.661 660.739C401.866 660.739 402.849 661.119 403.61 661.881C404.371 662.642 404.752 663.753 404.752 665.213V674H401.658V665.69C401.658 664.878 401.442 664.284 401.011 663.909C400.579 663.528 400.05 663.338 399.425 663.338C398.681 663.338 398.099 663.571 397.678 664.037C397.263 664.497 397.056 665.097 397.056 665.835V674H394.031V665.562C394.031 664.886 393.826 664.347 393.417 663.943C393.013 663.54 392.485 663.338 391.832 663.338C391.388 663.338 390.985 663.452 390.621 663.679C390.258 663.901 389.968 664.216 389.752 664.625C389.536 665.028 389.428 665.5 389.428 666.04V674H386.343ZM411.649 674.264C410.82 674.264 410.072 674.116 409.408 673.821C408.749 673.52 408.226 673.077 407.839 672.491C407.459 671.906 407.268 671.185 407.268 670.327C407.268 669.588 407.405 668.977 407.678 668.494C407.95 668.011 408.322 667.625 408.794 667.335C409.266 667.045 409.797 666.827 410.388 666.679C410.984 666.526 411.601 666.415 412.237 666.347C413.004 666.267 413.626 666.196 414.104 666.134C414.581 666.065 414.928 665.963 415.143 665.827C415.365 665.685 415.476 665.466 415.476 665.17V665.119C415.476 664.477 415.286 663.98 414.905 663.628C414.524 663.276 413.976 663.099 413.26 663.099C412.504 663.099 411.905 663.264 411.462 663.594C411.024 663.923 410.729 664.312 410.575 664.761L407.695 664.352C407.922 663.557 408.297 662.892 408.82 662.358C409.342 661.818 409.982 661.415 410.737 661.148C411.493 660.875 412.328 660.739 413.243 660.739C413.874 660.739 414.501 660.812 415.126 660.96C415.751 661.108 416.322 661.352 416.839 661.693C417.357 662.028 417.771 662.486 418.084 663.065C418.402 663.645 418.561 664.369 418.561 665.239V674H415.595V672.202H415.493C415.305 672.565 415.041 672.906 414.7 673.224C414.365 673.537 413.942 673.79 413.43 673.983C412.925 674.17 412.331 674.264 411.649 674.264ZM412.45 671.997C413.07 671.997 413.607 671.875 414.061 671.631C414.516 671.381 414.865 671.051 415.109 670.642C415.359 670.233 415.484 669.787 415.484 669.304V667.761C415.388 667.841 415.223 667.915 414.99 667.983C414.763 668.051 414.507 668.111 414.223 668.162C413.939 668.213 413.658 668.259 413.379 668.298C413.101 668.338 412.859 668.372 412.655 668.401C412.195 668.463 411.783 668.565 411.419 668.707C411.055 668.849 410.768 669.048 410.558 669.304C410.348 669.554 410.243 669.878 410.243 670.276C410.243 670.844 410.45 671.273 410.865 671.562C411.28 671.852 411.808 671.997 412.45 671.997ZM424.749 666.33V674H421.663V660.909H424.612V663.134H424.766C425.067 662.401 425.547 661.818 426.206 661.386C426.871 660.955 427.692 660.739 428.669 660.739C429.572 660.739 430.359 660.932 431.03 661.318C431.706 661.705 432.229 662.264 432.598 662.997C432.973 663.73 433.158 664.619 433.152 665.665V674H430.067V666.142C430.067 665.267 429.839 664.582 429.385 664.088C428.936 663.594 428.314 663.347 427.518 663.347C426.979 663.347 426.499 663.466 426.078 663.705C425.663 663.937 425.337 664.276 425.098 664.719C424.865 665.162 424.749 665.699 424.749 666.33ZM436.288 674V660.909H439.374V674H436.288ZM437.839 659.051C437.351 659.051 436.93 658.889 436.578 658.565C436.226 658.236 436.05 657.841 436.05 657.381C436.05 656.915 436.226 656.52 436.578 656.196C436.93 655.866 437.351 655.702 437.839 655.702C438.334 655.702 438.754 655.866 439.101 656.196C439.453 656.52 439.629 656.915 439.629 657.381C439.629 657.841 439.453 658.236 439.101 658.565C438.754 658.889 438.334 659.051 437.839 659.051ZM444.464 678.909C444.043 678.909 443.654 678.875 443.296 678.807C442.944 678.744 442.663 678.67 442.452 678.585L443.168 676.182C443.617 676.313 444.018 676.375 444.37 676.369C444.722 676.364 445.032 676.253 445.299 676.037C445.572 675.827 445.802 675.474 445.989 674.98L446.254 674.273L441.506 660.909H444.779L447.796 670.795H447.933L450.958 660.909H454.239L448.998 675.585C448.754 676.278 448.43 676.872 448.026 677.366C447.623 677.866 447.129 678.247 446.543 678.509C445.964 678.776 445.271 678.909 444.464 678.909ZM461.724 674.256C460.412 674.256 459.278 673.983 458.324 673.438C457.375 672.886 456.645 672.108 456.134 671.102C455.622 670.091 455.366 668.901 455.366 667.531C455.366 666.185 455.622 665.003 456.134 663.986C456.651 662.963 457.372 662.168 458.298 661.599C459.224 661.026 460.312 660.739 461.562 660.739C462.369 660.739 463.131 660.869 463.847 661.131C464.568 661.386 465.205 661.784 465.756 662.324C466.313 662.864 466.75 663.551 467.068 664.386C467.386 665.216 467.545 666.205 467.545 667.352V668.298H456.815V666.219H464.588C464.582 665.628 464.455 665.102 464.205 664.642C463.955 664.176 463.605 663.81 463.156 663.543C462.713 663.276 462.196 663.142 461.605 663.142C460.974 663.142 460.42 663.295 459.943 663.602C459.466 663.903 459.094 664.301 458.827 664.795C458.565 665.284 458.432 665.821 458.426 666.406V668.222C458.426 668.983 458.565 669.636 458.844 670.182C459.122 670.722 459.511 671.136 460.011 671.426C460.511 671.71 461.097 671.852 461.767 671.852C462.216 671.852 462.622 671.79 462.986 671.665C463.349 671.534 463.665 671.344 463.932 671.094C464.199 670.844 464.401 670.534 464.537 670.165L467.418 670.489C467.236 671.25 466.889 671.915 466.378 672.483C465.872 673.045 465.224 673.483 464.435 673.795C463.645 674.102 462.741 674.256 461.724 674.256Z" fill="#D0D5DD"/>
</svg>
